<svg width="290" height="270" viewBox="0 0 290 270" fill="none" xmlns="http://www.w3.org/2000/svg">
<path d="M101.86 217.119L223.572 210.674L221.64 269.969H81.8965L101.86 217.119Z" fill="#FFB800"/>
<path d="M135.6 194.718C136.21 195.084 136.94 195.351 137.615 195.574C143.228 197.424 150.174 196.797 155.425 194.164L155.375 202.681L155.37 206.534C156.327 207.573 159.19 211.019 160.193 211.595C161.615 212.387 163.025 213.18 164.396 214.06C162.863 215.034 161.088 215.503 159.371 216.044C152.358 218.251 145.363 219.182 138.097 217.568C135.558 217.004 132.741 216.157 130.417 214.974C130.78 213.995 131.496 213.084 131.736 212.07C132.208 211.738 132.649 211.356 133.097 210.993C134.47 209.868 134.95 204.314 135.142 202.483C135.502 199.928 135.532 197.295 135.6 194.718Z" fill="#FFD0AE"/>
<path d="M135.6 194.718C136.21 195.084 136.94 195.351 137.615 195.574C143.228 197.424 150.174 196.797 155.425 194.164L155.375 202.681C153.846 203.421 152.136 203.869 150.49 204.257C145.109 205.524 139.923 205.465 135.142 202.483C135.501 199.928 135.532 197.295 135.6 194.718Z" fill="#FA9F5E"/>
<path d="M201.257 115.048C201.19 105.111 204.858 95.6792 211.843 88.5565C216.721 83.5831 222.52 80.244 229.623 80.2093C232.851 80.1934 235.794 80.8277 238.896 81.6624C245.372 79.6746 252.346 79.5132 258.471 82.7402C266.307 86.8677 273.217 94.0451 275.837 102.619C277.886 109.329 278.112 117.651 276.701 124.522C276.118 127.356 275.024 130.035 274.932 132.949C274.153 131.655 273.252 130.354 271.932 129.558C270.887 128.927 269.555 128.716 268.374 129.049C268.11 129.124 267.95 129.173 267.67 129.138C267.442 127.244 267.865 124.552 267.845 122.498C265.057 118.683 262.241 114.76 258.505 111.809C252.347 106.946 243.766 104.204 238.994 97.9472C233.296 105.65 222.715 107.263 216.158 114.184C211.323 119.287 211.286 122.722 211.443 129.332C210.352 128.91 209.345 128.602 208.156 128.783C206.695 129.006 205.309 130.06 204.463 131.251C204.315 131.461 204.204 131.617 204 131.781L203.81 131.387C203.277 127.262 202.305 123.276 201.545 119.194C201.374 117.806 201.298 116.445 201.257 115.048Z" fill="#4B2D10"/>
<path d="M91.1315 133.188C93.3075 132.32 96.6797 131.041 98.9553 130.617C102.875 136.306 107.697 139.372 114.152 141.651C113.786 145.481 113.615 149.296 113.514 153.14C113.483 154.332 113.299 155.792 113.503 156.962C111.576 158.961 110.678 161.164 110.725 163.941C110.763 166.161 111.504 168.213 112.621 170.111C113.855 171.577 115.352 173.146 117.384 173.304C118.067 173.357 118.72 173.194 119.315 172.858L119.444 172.865C121.378 180.697 124.852 188.361 132.021 192.72C133.147 193.404 134.57 193.928 135.6 194.718C135.531 197.295 135.501 199.927 135.142 202.482C134.949 204.314 134.47 209.868 133.097 210.993C132.649 211.356 132.207 211.738 131.736 212.07C131.496 213.084 130.78 213.994 130.417 214.974L130.256 214.915L129.989 214.815C129.274 214.551 128.701 214.299 128.083 213.846C126.258 214.458 124.446 215.241 122.671 215.989L114.098 219.68C108.178 222.265 105.762 223.612 103.253 229.792C101.631 233.788 100.701 238.004 99.6149 242.166C99.2338 239.951 101.155 234.653 101.323 232.023C101.494 229.355 100.495 225.624 100.073 222.927C99.4444 218.913 99.1288 214.766 98.0586 210.84C96.5756 205.399 93.5522 201.982 88.7056 199.238C93.271 196.681 97.8491 193.4 100.456 188.752C105.461 179.83 100.468 171.984 96.8876 163.755C96.067 161.869 95.4123 159.919 94.8559 157.94C92.9161 151.039 91.9917 143.862 91.2794 136.745C91.2015 135.967 90.7711 133.832 91.1315 133.188Z" fill="#8E3B00"/>
<path d="M131.736 212.07C131.496 213.084 130.78 213.994 130.417 214.974L130.256 214.916L129.989 214.815C129.274 214.551 128.702 214.299 128.083 213.847L131.736 212.07Z" fill="#FFD0AE"/>
<path d="M107.3 204.998C109.298 198.894 110.182 192.313 110.931 185.956C111.201 183.665 112.138 171.14 112.622 170.111C113.856 171.578 115.352 173.146 117.385 173.304C118.067 173.358 118.72 173.195 119.315 172.859L119.444 172.865C121.378 180.697 124.853 188.361 132.022 192.72C133.147 193.405 134.57 193.929 135.6 194.718C135.532 197.295 135.502 199.928 135.142 202.483C134.95 204.314 134.47 209.868 133.097 210.993C132.883 211.034 132.67 211.069 132.456 211.105C130.871 211.371 129.014 211.05 127.419 210.891C120.474 210.197 113.295 208.768 107.3 204.998Z" fill="#4B2D10"/>
<path d="M94.076 29.6663C94.8729 26.8649 96.483 24.5049 98.6137 22.5455C104.224 17.3862 112.751 15.5803 120.158 15.9547C127.913 16.3468 140.979 20.5675 146.174 26.3427C146.207 26.4073 146.239 26.4731 146.273 26.5371C146.647 27.232 147.474 27.8772 148.007 28.4679C148.982 29.5469 149.919 30.6905 150.685 31.9294C155.927 40.3992 155.685 50.9428 153.259 60.2543C152.71 62.3636 151.322 64.7455 150.895 66.7268C150.454 66.6303 150.019 66.545 149.566 66.5404C147.349 66.5178 146.047 68.2338 144.603 69.6425C144.174 67.9143 143.902 66.148 143.453 64.4211C142.493 60.7368 140.826 56.9938 138.821 53.7482C137.675 51.8912 136.214 50.1304 134.119 49.3265C131.586 48.3547 128.042 48.7958 125.375 48.8229C119.923 48.878 114.007 49.3188 108.698 47.965C106.116 47.3064 102.896 46.0297 100.874 44.2516C100.344 43.7855 99.4553 42.6568 98.8149 42.5078C100.197 51.8954 95.8359 54.0528 92.7608 61.7132C91.7934 64.1234 91.7192 66.8277 90.7607 69.1758C90.4776 69.4231 90.4018 69.5301 89.9933 69.4536C89.78 69.4137 89.5158 69.2468 89.3203 69.1462C89.3039 69.0737 89.2957 68.9988 89.271 68.9287C88.994 68.1367 87.793 67.6349 87.0959 67.2764C85.3281 66.8021 84.092 66.8983 82.3981 67.5993C80.6854 63.8228 78.8143 54.2113 78.5575 49.9028C78.2421 44.6141 79.1531 38.6734 82.7972 34.5883C85.8227 31.1968 89.6409 29.9082 94.076 29.6663Z" fill="#8E3B00"/>
<path d="M87.0955 67.2763C86.8901 64.4541 85.5542 61.0956 84.8297 58.3167C83.8496 54.5557 83.958 51.3147 85.9946 47.9165C88.6287 43.5212 92.7464 41.0369 97.6295 39.8428C98.0995 40.6659 98.729 41.549 98.8145 42.5077C100.197 51.8953 95.8355 54.0527 92.7604 61.713C91.793 64.1233 91.7188 66.8275 90.7603 69.1757C90.4772 69.423 90.4014 69.5299 89.9929 69.4535C89.7796 69.4136 89.5154 69.2466 89.32 69.1461C89.3035 69.0736 89.2953 68.9987 89.2706 68.9286C88.9937 68.1366 87.7926 67.6348 87.0955 67.2763Z" fill="#4B2D10"/>
<path d="M98.8146 42.5078C99.455 42.6568 100.343 43.7854 100.873 44.2515C102.896 46.0297 106.116 47.3064 108.698 47.965C114.007 49.3188 119.923 48.878 125.375 48.8229C128.042 48.7958 131.586 48.3546 134.118 49.3264C136.213 50.1304 137.674 51.8911 138.821 53.7482C140.825 56.9938 142.493 60.7368 143.452 64.421C143.902 66.148 144.174 67.9143 144.603 69.6425C146.046 68.2338 147.348 66.5178 149.565 66.5404C150.019 66.5449 150.454 66.6302 150.895 66.7268C151.848 67.0516 152.67 67.4969 153.53 68.0154C155.109 69.4746 155.761 70.8802 156.129 72.9898C156.195 73.3657 156.197 73.9454 156.349 74.2708C156.465 75.779 156.533 77.3494 156.054 78.8092C154.997 81.6371 153.647 83.8399 150.819 85.1553C148.792 86.0985 146.781 86.0985 144.679 85.4402C142.123 94.4473 137.769 102.932 129.311 107.658C129.008 107.827 128.702 107.993 128.396 108.157C127.223 108.725 126.05 109.272 124.821 109.709C118.842 111.835 112.734 110.65 107.156 107.996C98.2481 102.629 93.6858 95.4681 90.5439 85.7012C89.9979 85.9084 89.5139 86.0723 88.9338 86.15C87.7263 86.2852 86.4896 86.1631 85.3208 85.8322C82.6474 85.0758 80.4443 83.2316 79.1099 80.8042C77.7901 78.404 77.3579 75.4278 78.135 72.7826C78.8414 70.3778 80.244 68.7977 82.3978 67.5993C84.0917 66.8983 85.3278 66.8021 87.0956 67.2764C87.7926 67.6349 88.9937 68.1367 89.2707 68.9287C89.2954 68.9988 89.3036 69.0737 89.32 69.1462C89.5154 69.2467 89.7796 69.4137 89.993 69.4536C90.4015 69.5301 90.4773 69.4231 90.7603 69.1758C91.7188 66.8276 91.7931 64.1234 92.7604 61.7131C95.8356 54.0528 100.197 51.8954 98.8146 42.5078Z" fill="#FFD0AE"/>
<path d="M117.116 78.0854C117.142 79.014 116.191 80.4272 115.829 81.3374C115.596 81.9238 115.384 82.6559 115.721 83.2496C116.392 84.4288 118.649 83.8665 119.756 84.215C120.11 84.3265 120.062 84.3981 120.231 84.7051L120.075 84.3377L120.018 84.6479L120.213 84.4377L120.049 84.8541C119.576 85.135 119.296 85.17 118.75 85.1685C117.448 85.1858 115.738 85.3833 114.586 84.632C114.166 84.3582 113.929 84.0185 113.845 83.5158C113.566 81.8373 116.085 79.3153 117.116 78.0854Z" fill="#FA9F5E"/>
<path d="M85.2941 73.168C86.4471 73.2779 87.0385 73.6197 87.7797 74.5132C87.8433 74.5903 87.9054 74.6683 87.9681 74.746C87.8871 75.5191 87.7687 76.3292 87.8378 77.1063C87.9255 78.0948 88.8566 80.372 88.186 81.0708C87.4473 81.1984 86.6833 80.7939 86.003 80.5316C84.7465 79.9467 83.6066 79.3009 82.9379 78.0193C82.5163 77.2111 82.4019 76.2542 82.7324 75.393C83.1793 74.2272 84.2087 73.6359 85.2941 73.168Z" fill="#FA9F5E"/>
<path d="M132.136 70.3862C132.657 70.4082 133.183 70.4438 133.671 70.6436C134.521 70.9909 135.188 71.726 135.498 72.5845C135.845 73.5468 135.758 74.6316 135.276 75.5309C134.75 76.5133 134.042 76.8902 133.014 77.2173C132.249 77.2341 131.554 77.2259 130.876 76.8204C130.077 76.3424 129.519 75.5528 129.311 74.6471C129.09 73.6851 129.262 72.628 129.826 71.8119C130.408 70.9702 131.157 70.587 132.136 70.3862Z" fill="#4B2D10"/>
<path d="M102.533 70.3601C103.139 70.3156 103.761 70.2547 104.348 70.4469C105.203 70.7269 105.936 71.3523 106.331 72.1626C106.768 73.0603 106.817 74.1351 106.46 75.0676C106.033 76.1816 105.274 76.716 104.215 77.1702C103.641 77.1942 103.034 77.246 102.475 77.0873C101.635 76.8488 100.91 76.1789 100.533 75.399C100.095 74.493 100.012 73.4076 100.365 72.4593C100.77 71.3733 101.526 70.8426 102.533 70.3601Z" fill="#4B2D10"/>
<path d="M148.562 72.6369C148.791 72.6311 149.017 72.6475 149.242 72.6826C150.108 72.8163 151.092 73.3509 151.593 74.0833C152.224 75.0027 152.393 76.277 152.126 77.3483C151.72 78.9751 150.571 79.949 149.188 80.7478C148.217 81.0643 147.273 81.1931 146.261 81.3129C146.674 79.9009 147.337 78.247 147.286 76.7671C147.258 75.9382 146.671 74.9222 146.848 74.1317C147.019 73.3656 147.942 72.9586 148.562 72.6369Z" fill="#FA9F5E"/>
<path d="M103.829 60.3555C105.254 60.3744 106.882 60.353 108.133 61.1234C108.655 61.4445 109.078 61.9185 109.191 62.5363C109.278 63.0113 109.195 63.4271 108.913 63.8256C107.86 65.3088 103.469 64.7367 101.749 64.9049C100.014 65.0803 98.3439 65.4304 96.6665 65.9028C96.84 64.5798 97.008 62.9086 97.9382 61.8802C99.1959 60.4901 102.098 60.4804 103.829 60.3555Z" fill="#8E3B00"/>
<path d="M130.514 60.3507C132.484 60.163 136.139 60.3973 137.784 61.5869C138.801 62.3226 138.967 64.6996 139.195 65.8776C138.245 65.6059 137.261 65.4244 136.295 65.216C134.028 64.858 128.998 65.3278 127.285 64.2162C126.904 63.9691 126.586 63.6221 126.543 63.1472C126.493 62.583 126.844 61.9841 127.193 61.5665C128.042 60.5496 129.291 60.4896 130.514 60.3507Z" fill="#8E3B00"/>
<path d="M109.736 92.4396C109.191 91.2709 110.187 90.0839 111.477 90.1001C115.61 90.1519 119.744 90.0388 123.879 90.0299C125.198 90.027 126.161 91.3063 125.585 92.4935C125.172 93.3439 124.665 94.1387 124.003 94.9608C122.744 96.2613 121.301 97.0997 119.524 97.4856C117.311 97.9667 114.9 97.5444 113.008 96.2918C111.556 95.3307 110.457 93.984 109.736 92.4396Z" fill="#FA9F5E"/>
<path d="M166.781 7.00305C168.498 3.79708 171.163 1.63567 174.652 0.582159C178.23 -0.498377 181.929 -0.0534908 185.192 1.73998C186.28 2.33816 187.333 3.06894 188.299 3.84978C191.58 1.34932 195.416 -0.0237278 199.571 0.51715C203.539 1.03363 206.925 2.98292 209.347 6.16244C209.957 6.96317 210.489 7.80749 211.007 8.6693C215.524 8.66275 219.095 9.62561 222.355 12.9111C225.425 16.0059 226.693 19.9423 226.648 24.2499C226.639 25.1123 226.575 25.9762 226.516 26.8362C229.576 27.3321 232.375 29.0987 234.203 31.6007C236.034 34.1069 236.807 37.3887 236.293 40.4485C235.66 44.2293 234.181 45.24 231.738 47.8544C233.307 52.7947 236.532 55.5172 233.624 61.0268C232.3 63.5357 229.618 65.886 227.073 67.0905C226.642 69.7515 225.857 72.2641 223.544 73.9195C222.739 74.4955 221.83 74.8696 220.874 75.11C219.707 78.9271 218.051 82.8739 214.32 84.8156C213.55 85.2162 212.533 85.6713 211.667 85.7582L211.564 85.696C207.94 91.3339 204.365 95.2173 198.221 98.2354C197.714 98.4608 197.206 98.685 196.689 98.8864C190.373 101.344 184.461 100.633 178.393 97.935C173.447 95.3837 169.065 91.5115 166.146 86.7437C165.162 85.137 164.396 83.3723 163.525 81.7004C160.705 81.2203 158.439 80.4155 156.054 78.8095C156.533 77.3497 156.465 75.7793 156.348 74.271C156.197 73.9457 156.195 73.366 156.129 72.99C155.761 70.8805 155.109 69.4749 153.53 68.0157C152.67 67.4972 151.848 67.0518 150.895 66.7271C151.321 64.7457 152.71 62.3638 153.259 60.2545C155.684 50.9431 155.926 40.3994 150.685 31.9297C149.918 30.6907 148.982 29.5471 148.007 28.4681C147.474 27.8774 146.647 27.2322 146.273 26.5374C146.238 26.4734 146.207 26.4076 146.173 26.343C147.652 24.2733 149.154 23.0816 151.261 21.7007C151.086 17.7587 151.875 14.4638 154.592 11.4708C157.236 8.55634 160.791 7.05432 164.696 6.9179C165.393 6.89356 166.087 6.95354 166.781 7.00305Z" fill="#4B2D10"/>
<path d="M171.371 36.7109C174.209 36.7218 176.231 36.444 178.781 35.1597C179.055 35.7269 179.326 36.2975 179.623 36.8534C181.275 39.9503 184.146 42.5678 187.545 43.5633C191.606 44.7523 194.889 43.6717 198.46 41.7401C199.658 43.3028 200.883 44.7837 202.548 45.8715C205.943 48.0902 209.284 48.0423 213.105 47.2146C212.962 48.3439 212.833 49.4366 212.941 50.5772C213.253 53.8764 215.067 56.3869 217.555 58.4331L217.778 58.42C218.435 58.3758 219.073 58.147 219.726 58.0599C221.24 57.8579 223.183 58.6917 224.317 59.6321C225.986 61.0152 226.861 63.0861 227.054 65.2094C227.111 65.8296 227.084 66.4681 227.073 67.0905C226.642 69.7514 225.857 72.2641 223.544 73.9194C222.74 74.4955 221.83 74.8696 220.875 75.11C219.707 78.927 218.052 82.8739 214.321 84.8156C213.551 85.2162 212.534 85.6713 211.668 85.7581L211.564 85.696C207.94 91.3338 204.365 95.2173 198.222 98.2353C197.714 98.4608 197.206 98.685 196.689 98.8863C190.373 101.344 184.461 100.632 178.393 97.935C173.448 95.3836 169.066 91.5114 166.146 86.7436C165.162 85.137 164.396 83.3722 163.525 81.7004C160.706 81.2203 158.439 80.4155 156.055 78.8094C156.534 77.3496 156.465 75.7792 156.349 74.271C156.198 73.9457 156.195 73.3659 156.13 72.99C155.761 70.8804 155.109 69.4748 153.53 68.0156C154.183 66.253 154.243 64.0853 154.451 62.2246C156.361 61.5126 158.18 60.9637 159.551 59.3528C160.284 58.3222 160.958 57.3544 161.406 56.1608C162.555 53.0956 161.993 49.9256 160.702 47.0188C162.27 46.5837 163.782 46.1241 165.212 45.3338C168.638 43.4414 170.341 40.3729 171.371 36.7109Z" fill="#FFD0AE"/>
<path d="M202.483 58.9398C203.1 58.9115 203.712 58.9743 204.28 59.236C205.203 59.6612 205.896 60.4676 206.198 61.4357C206.496 62.388 206.391 63.4527 205.886 64.3163C205.311 65.2994 204.493 65.7146 203.439 66.0229C202.762 66.0537 202.042 65.9845 201.423 65.6917C200.593 65.2991 199.961 64.5878 199.666 63.7183C199.339 62.7557 199.439 61.6639 199.934 60.7762C200.524 59.7179 201.365 59.2865 202.483 58.9398Z" fill="#4B2D10"/>
<path d="M173.902 58.9359C174.61 58.9222 175.327 59.073 175.951 59.4157C176.79 59.8763 177.385 60.6586 177.637 61.5792C177.9 62.5352 177.76 63.5676 177.227 64.405C176.589 65.4076 175.693 65.8145 174.572 66.0625C173.9 66.0796 173.222 65.9879 172.627 65.6543C171.829 65.2065 171.247 64.4431 170.996 63.566C170.715 62.5818 170.829 61.5329 171.351 60.648C171.963 59.6092 172.768 59.2122 173.902 58.9359Z" fill="#4B2D10"/>
<path d="M160.722 72.4717C161.386 75.6554 162.362 78.6692 163.525 81.7009C160.705 81.2208 158.439 80.4159 156.054 78.8099C156.533 77.3501 156.465 75.7797 156.349 74.2715C157.787 73.4267 158.489 74.7695 160.722 72.4717Z" fill="#4B2D10"/>
<path d="M172.111 48.899C174.029 48.7162 175.881 48.8676 177.685 49.5808C178.438 49.8784 179.878 50.5733 180.115 51.4503C180.227 51.8664 180.173 51.9645 179.987 52.3213C178.933 53.0512 176.347 52.695 175.025 52.7822C172.553 52.8931 170.133 53.3649 167.848 54.3142C167.845 53.1218 167.78 51.9496 168.422 50.888C169.2 49.6027 170.758 49.2426 172.111 48.899Z" fill="#4B2D10"/>
<path d="M203.846 48.6249C204.153 48.6176 204.461 48.6137 204.768 48.6356C206.154 48.7346 207.567 49.1398 208.504 50.2267C209.592 51.4876 209.478 52.8322 209.35 54.3691C207.811 53.673 206.218 53.3538 204.549 53.1698C202.536 52.8995 199.65 53.1713 197.812 52.5407C197.35 52.3817 197.109 52.1955 196.896 51.7605C196.929 51.4845 196.983 51.3682 197.16 51.143C198.454 49.4992 201.883 48.808 203.846 48.6249Z" fill="#4B2D10"/>
<path d="M215.345 74.4585C217.312 75.5125 218.717 75.7112 220.874 75.1101C219.707 78.9272 218.051 82.874 214.32 84.8157C213.55 85.2163 212.533 85.6715 211.667 85.7583L211.564 85.6961C213.439 82.0887 214.523 78.423 215.345 74.4585Z" fill="#4B2D10"/>
<path d="M216.675 64.2516C217.425 63.3496 218.293 62.5015 219.532 62.4134C220.343 62.3559 221.109 62.6471 221.706 63.1933C222.587 63.9984 223.061 65.2191 223.098 66.3987C223.138 67.7031 222.675 69.0127 221.75 69.9443C220.525 71.1793 218.883 71.5482 217.215 71.6853C217.07 70.4512 216.994 69.1364 216.303 68.0665C216.448 66.8011 216.635 65.5253 216.675 64.2516Z" fill="#FA9F5E"/>
<path d="M154.451 62.2243C156.361 61.5124 158.18 60.9634 159.551 59.3525C159.875 61.2288 159.729 63.1931 159.776 65.0934C159.839 67.602 160.158 70.0269 160.722 72.471C158.49 74.7688 157.787 73.426 156.349 74.2708C156.198 73.9454 156.195 73.3657 156.13 72.9898C155.761 70.8802 155.109 69.4746 153.53 68.0154C154.183 66.2528 154.243 64.085 154.451 62.2243Z" fill="#FA9F5E"/>
<path d="M194.93 81.1637C196.192 81.1745 197.136 82.3469 196.733 83.5432C196.582 83.9907 196.416 84.3995 196.249 84.6588C194.839 86.8412 192.705 88.4289 190.132 88.9267C187.648 89.4075 185.498 88.7155 183.468 87.3652C183.382 87.3077 183.3 87.242 183.225 87.1705C181.972 85.9799 181.123 84.9046 180.486 83.5772C179.927 82.4092 180.867 81.1576 182.162 81.1438C186.156 81.1012 191.76 81.1367 194.93 81.1637Z" fill="#FA9F5E"/>
<path d="M238.993 97.9473C243.766 104.204 252.347 106.946 258.505 111.809C262.241 114.76 265.057 118.683 267.845 122.498C267.865 124.552 267.442 127.244 267.669 129.138C267.95 129.173 268.11 129.124 268.374 129.049C269.555 128.717 270.887 128.927 271.932 129.558C273.251 130.354 274.153 131.655 274.932 132.949C275.541 135.152 275.467 137.529 275.101 139.77C275.324 141.496 275.318 143.27 275.388 145.009C275.565 149.468 275.764 153.993 277.011 158.306C278.121 162.146 280.404 165.322 282.115 168.882C286.562 178.134 285.386 187.541 279.143 195.656C278.657 196.288 278.143 196.894 277.617 197.494C277.185 197.381 276.633 196.897 276.247 196.644C273.749 195.003 270.852 194.004 268.095 192.864C264.741 191.498 261.383 189.987 257.928 188.903C256.102 192.229 246.049 207.174 243.701 209.104C242.373 210.196 240.8 210.854 239.06 210.654C237.675 210.494 236.462 209.816 235.42 208.917C233.527 207.285 232.026 204.986 230.52 202.993C227.02 198.361 223.746 193.556 220.225 188.948C216.973 189.853 213.802 191.123 210.592 192.174C206.703 193.534 203.035 195.11 199.276 196.777C197.666 194.437 196.169 191.987 195.141 189.329C192.331 182.065 193.201 173.88 196.794 167.054C197.785 165.171 199.057 163.428 200.172 161.616C202.517 157.803 203.631 153.589 203.782 149.138C203.681 146.581 203.94 143.985 203.744 141.436C203.616 139.772 202.932 138.209 202.961 136.524C202.99 134.825 203.763 133.232 203.809 131.54C203.81 131.49 203.809 131.438 203.81 131.387L204 131.781C204.204 131.618 204.315 131.461 204.463 131.251C205.309 130.06 206.695 129.006 208.156 128.784C209.345 128.603 210.352 128.911 211.442 129.332C211.286 122.723 211.323 119.287 216.158 114.184C222.715 107.263 233.295 105.65 238.993 97.9473Z" fill="#FA9F5E"/>
<path d="M252.463 119.757C254.503 119.693 256.732 120.084 258.565 121.01C259.418 121.441 260.059 121.936 260.35 122.867C260.282 123.32 260.291 123.306 259.942 123.601C258.895 123.865 258.302 123.505 257.381 123.069C254.136 121.549 251.842 122.838 249.54 122.114C249.184 122.002 249.215 121.84 249.061 121.522C249.088 121.068 249.079 120.953 249.407 120.605C250.08 119.891 251.543 119.815 252.463 119.757Z" fill="#8E3B00"/>
<path d="M223.314 119.893C224.79 119.757 226.424 119.684 227.75 120.456C228.176 120.704 228.616 121.062 228.726 121.565C228.781 121.814 228.675 121.876 228.554 122.078C227.221 122.812 225.248 122.247 223.757 122.294C222.924 122.32 222.102 122.51 221.29 122.686C220.24 123.022 219.317 123.613 218.288 123.978C217.892 124.119 217.572 124.093 217.199 123.892C216.832 123.694 216.606 123.474 216.478 123.073C216.497 122.878 216.522 122.725 216.643 122.561C217.762 121.057 221.538 120.163 223.314 119.893Z" fill="#8E3B00"/>
<path d="M252.621 128.849C253.1 128.813 253.6 128.78 254.059 128.954C254.803 129.235 255.373 129.875 255.676 130.599C256.089 131.587 256.082 132.779 255.674 133.767C255.282 134.715 254.735 135.163 253.808 135.543C253.38 135.559 252.903 135.589 252.488 135.47C251.797 135.272 251.236 134.737 250.892 134.12C250.381 133.206 250.331 132.013 250.637 131.025C250.985 129.9 251.59 129.361 252.621 128.849Z" fill="#4B2D10"/>
<path d="M223.086 128.679C223.512 128.625 223.953 128.598 224.376 128.688C225.146 128.851 225.86 129.47 226.265 130.126C226.848 131.072 227.01 132.285 226.692 133.351C226.391 134.356 225.855 134.917 224.962 135.42C224.583 135.515 224.154 135.566 223.764 135.545C223.104 135.508 222.467 135.097 222.061 134.592C221.406 133.777 221.191 132.568 221.32 131.55C221.485 130.236 222.045 129.449 223.086 128.679Z" fill="#4B2D10"/>
<path d="M229.84 148.675C236.025 149.742 242.47 149.233 248.685 148.747C247.985 150.332 247.174 151.628 246.07 152.963C245.017 154.072 243.814 154.998 242.39 155.573C240.421 156.367 238.179 156.343 236.227 155.511C233.337 154.278 231.008 151.549 229.84 148.675Z" fill="#FFD0AE"/>
<path d="M203.904 141.294C205.346 143.844 207.171 146.083 210.104 146.928C210.942 147.17 211.807 147.227 212.673 147.291C213.569 150.564 214.855 153.255 216.773 156.052C219.173 159.278 221.857 162.106 225.417 164.057C226.551 164.679 227.746 165.145 228.895 165.727L228.864 173.094C228.888 177.683 229.393 182.277 225.863 185.826C224.285 187.413 222.314 188.25 220.225 188.947C216.973 189.853 213.802 191.122 210.592 192.173C206.703 193.534 203.035 195.11 199.276 196.777C197.666 194.436 196.169 191.986 195.141 189.329C192.331 182.065 193.201 173.88 196.794 167.054C197.785 165.171 199.057 163.427 200.172 161.616C202.517 157.803 203.631 153.588 203.782 149.137C204.065 146.558 203.838 143.89 203.904 141.294Z" fill="#4B2D10"/>
<path d="M275.102 139.77C275.324 141.496 275.318 143.27 275.388 145.009C275.565 149.468 275.764 153.993 277.011 158.305C278.121 162.145 280.404 165.321 282.116 168.882C286.562 178.134 285.386 187.541 279.144 195.656C278.657 196.288 278.143 196.894 277.617 197.494C277.185 197.38 276.633 196.897 276.247 196.643C273.749 195.002 270.852 194.004 268.095 192.864C264.741 191.498 261.383 189.987 257.928 188.902C256.234 188.268 254.503 187.658 253.031 186.579C250.592 184.792 249.408 182.362 248.937 179.431L248.952 165.95C254.967 163.384 258.529 160.341 262.283 155.032C263.617 152.358 264.866 150.011 265.628 147.099L265.865 147.144C267.142 147.306 268.548 147.097 269.717 146.564C272.602 145.252 274.091 142.623 275.102 139.77Z" fill="#4B2D10"/>
<path d="M257.928 188.902C261.383 189.987 264.741 191.498 268.095 192.864C270.852 194.004 273.748 195.002 276.247 196.643C276.632 196.897 277.185 197.38 277.617 197.494L277.739 197.649C278.195 198.219 278.815 198.698 279.324 199.225C281.062 201.029 282.308 202.826 283.175 205.188C284.547 208.924 284.798 213.702 285.395 217.664C286.571 225.484 287.619 233.31 288.554 241.163C289.355 247.888 290.463 255.055 289.794 261.822C289.562 264.173 288.554 269.969 288.554 269.969C288.554 269.969 282.491 270.002 280.242 269.969H268.65C262.769 270.02 257.145 270 251.263 269.969H227.436C216.37 269.977 205 269.833 193.949 269.969C193.941 269.179 193.991 268.94 193.876 268.156C193.923 264.904 193.481 261.542 193.149 258.306C192.639 253.335 192.081 248.364 191.405 243.413C191.061 240.895 190.485 238.338 190.333 235.805C191.372 230.487 191.576 224.999 192.314 219.631C192.98 214.785 195.558 202.726 197.714 198.671C198.128 197.892 198.573 197.31 199.276 196.777C203.035 195.11 206.703 193.534 210.592 192.173C213.802 191.123 216.973 189.853 220.225 188.947C223.746 193.556 227.02 198.361 230.52 202.992C232.026 204.985 233.527 207.285 235.42 208.917C236.462 209.815 237.675 210.494 239.059 210.654C240.8 210.854 242.373 210.196 243.701 209.104C246.049 207.174 256.102 192.229 257.928 188.902Z" fill="#FF6B00"/>
<path d="M199.101 269.969C199.477 258.79 200.52 247.951 201.189 236.782C201.527 231.151 201.974 225.488 201.996 219.848L202.133 219.728L208.085 258.721C208.443 261.102 208.801 263.482 209.216 265.854C209.447 267.173 209.404 269.969 209.404 269.969C209.404 269.969 202.127 269.978 199.101 269.969Z" fill="#8E3B00"/>
<path d="M276.044 223.564C276.529 225.986 276.65 228.546 276.912 231.004L278.333 245.243L279.676 261.275C279.897 264.15 280.266 267.089 280.241 269.969L268.65 269.961C268.752 268.172 269.133 266.354 269.396 264.577L270.791 255.014C272.299 244.512 273.593 233.906 276.044 223.564Z" fill="#8E3B00"/>
<path d="M68.8186 190.964C70.8963 192.262 73.1621 193.138 75.4148 194.073C75.9733 194.261 76.5684 194.421 77.1081 194.655L78.0048 195.136C80.0813 195.624 82.7312 196.386 84.6129 197.39C85.9619 198.013 87.3155 198.719 88.7059 199.239C93.5525 201.982 96.576 205.399 98.0589 210.84C99.1291 214.766 99.4447 218.913 100.073 222.927C100.495 225.624 101.495 229.356 101.324 232.023C101.155 234.653 99.2341 239.951 99.6152 242.167C99.6684 243.787 98.9145 246.81 98.6713 248.579C98.0887 252.812 97.2599 257.079 96.9762 261.384C96.7857 264.276 96.7081 269.969 96.7081 269.969C96.7081 269.969 77.2344 269.972 73.5249 269.969H23.9385C18.6402 269.967 8.74031e-05 269.969 8.74031e-05 269.969C8.74031e-05 269.969 0.00447048 262.304 8.74032e-05 259.904C-0.0116008 253.542 1.15153 247.015 1.96164 240.708C2.79716 234.203 3.70434 227.711 4.75737 221.237C5.59701 216.076 6.40422 210.43 8.30286 205.538C9.43527 202.62 14.554 200.615 17.3545 199.404C18.3183 199.337 20.3581 198.117 21.3328 197.671C23.9008 196.606 26.5776 195.595 29.0391 194.303L36.0691 191.232L36.4903 191.033L37.2135 191.521C38.9808 192.466 40.7069 193.197 42.6196 193.793L44.231 194.208C46.0007 194.629 47.7996 194.881 49.6119 195.032L50.8805 195.084C52.8663 195.13 54.8168 194.924 56.7882 194.717C57.2789 194.542 57.9364 194.508 58.4575 194.418C60.3343 194.11 62.1204 193.627 63.9177 193.008L64.9812 192.636C66.3153 192.191 67.5995 191.67 68.8186 190.964Z" fill="#FF6B00"/>
<path d="M17.3546 199.404C11.1577 195.443 5.60763 192.932 3.13966 185.324C1.10645 179.055 2.70524 172.326 5.7741 166.682C7.13294 164.183 8.78509 161.838 9.973 159.245C13.947 150.573 15.9186 135.389 16.9859 125.786C17.9229 117.357 18.2454 109.496 22.1845 101.75C26.4275 93.4053 33.452 87.1901 42.3892 84.3062C51.2814 81.4365 62.0906 81.8962 70.4513 86.2522C79.5827 91.0096 86.1095 100.744 88.2503 110.713C89.2255 115.255 89.4334 119.977 90.0041 124.583C90.2281 126.39 90.5255 131.573 91.0539 133.016C91.0755 133.075 91.1059 133.131 91.1318 133.188C90.7714 133.832 91.2018 135.967 91.2798 136.745C91.992 143.862 92.9164 151.039 94.8562 157.94C95.4126 159.919 96.0674 161.869 96.888 163.755C100.468 171.984 105.461 179.83 100.457 188.752C97.8495 193.4 93.2713 196.681 88.7059 199.238C87.3155 198.718 85.9619 198.013 84.6129 197.39C82.7312 196.386 80.0813 195.624 78.0048 195.136L77.1081 194.655C76.5684 194.421 75.9734 194.261 75.4148 194.073C73.1621 193.138 70.8963 192.262 68.8186 190.964C67.5996 191.67 66.3154 192.191 64.9813 192.636L63.9178 193.007C62.1204 193.627 60.3343 194.11 58.4575 194.418C57.9364 194.508 57.2789 194.542 56.7883 194.716C54.8168 194.924 52.8663 195.13 50.8805 195.084L49.6119 195.031C47.7996 194.881 46.0007 194.629 44.2311 194.208L42.6197 193.793C40.7069 193.197 38.9808 192.466 37.2136 191.521L36.4903 191.032L36.0691 191.232L29.0391 194.303C26.5776 195.595 23.9009 196.606 21.3328 197.671C20.3582 198.117 18.3183 199.337 17.3546 199.404Z" fill="#B48100"/>
<path d="M22.6817 160.938C22.8397 161.545 20.9005 163.84 20.4783 164.436C17.8155 168.193 15.5598 172.641 15.3159 177.318C14.9468 184.395 18.5577 190.288 23.1094 195.376L23.081 195.511L22.5791 195.141C18.5115 191.175 14.7838 186.547 14.0283 180.721C12.9996 172.788 18.2136 166.789 22.6817 160.938Z" fill="#8E3B00"/>
<path d="M84.205 155.304C84.4525 159.908 88.7126 166.643 90.1411 171.469C92.5758 179.695 90.4168 185.46 86.4976 192.712L85.8794 193.785L85.8304 193.68C85.8785 193.472 85.9379 193.3 86.0392 193.111C90.8701 184.122 91.0043 175.753 87.1387 166.409C85.688 162.903 83.9777 159.194 84.205 155.304Z" fill="#8E3B00"/>
<path d="M25.4078 129.088C25.4181 130.094 25.4665 131.115 25.4276 132.12C25.6382 135.853 25.742 139.816 26.499 143.486C26.7687 144.947 27.1108 146.377 27.4758 147.815C24.5324 147.15 22.2663 146.397 20.1645 144.103C18.2784 142.045 16.9554 139.244 17.1209 136.408C17.2469 134.248 18.1024 132.09 19.7628 130.654C21.4813 129.168 23.2415 128.953 25.4078 129.088Z" fill="#FFD0AE"/>
<path d="M26.499 143.487C25.7639 143.558 24.9877 143.581 24.253 143.507C23.1526 143.396 22.1445 142.831 21.4533 141.971C20.2698 140.498 19.8626 138.148 20.1179 136.298C20.3045 134.946 20.9032 133.581 22.0221 132.748C23.1264 131.926 24.1391 131.967 25.4276 132.12C25.6382 135.853 25.742 139.816 26.499 143.487Z" fill="#FA9F5E"/>
<path d="M81.335 129.19C83.4882 129.164 85.1589 129.404 86.7761 130.993C88.5577 132.742 89.357 135.173 89.3156 137.632C89.2666 140.533 88.022 143.526 85.9016 145.524C83.9429 147.371 81.6622 148.054 79.0181 148.157C79.3182 147.014 79.5851 145.885 79.7839 144.72C80.5561 140.817 80.8377 136.746 81.1898 132.786L81.335 129.19Z" fill="#FFD0AE"/>
<path d="M81.1901 132.786C82.3885 132.538 83.2425 132.484 84.3231 133.162C85.459 133.875 86.1013 135.124 86.3558 136.409C86.7326 138.312 86.3515 140.358 85.2375 141.955C84.2784 143.33 82.8201 144.267 81.1685 144.557C80.7132 144.638 80.2444 144.675 79.7842 144.72C80.5564 140.817 80.8379 136.745 81.1901 132.786Z" fill="#FA9F5E"/>
<path d="M29.039 194.303C27.2134 192.25 25.8793 189.288 25.2915 186.614C24.0451 180.943 25.8041 176.13 28.5231 171.23C29.5455 169.387 30.6532 167.5 31.2254 165.457C31.7736 163.498 31.1262 159.048 31.9474 157.773C34.8938 162.081 38.2624 165.163 42.5742 168.089C42.7681 172.357 42.7447 176.624 42.7383 180.895C42.7145 184.068 41.6912 186.411 39.4431 188.645C38.5451 189.538 37.5309 190.314 36.4903 191.033L36.069 191.232L29.039 194.303Z" fill="#8E3B00"/>
<path d="M77.204 153.199C77.4655 153.302 77.4871 153.237 77.5638 153.479C77.9214 154.606 76.367 158.873 76.1049 160.333C75.8206 161.918 75.6328 163.591 75.7476 165.202C75.9579 168.158 77.6292 170.745 78.9411 173.32C81.917 179.163 83.5056 185.517 79.7986 191.402C79.0367 192.611 78.1683 193.697 77.1081 194.655C76.5685 194.421 75.9734 194.261 75.4149 194.073C73.1622 193.138 70.8963 192.262 68.8186 190.964C68.4774 190.679 68.1438 190.386 67.8178 190.083C65.2486 187.699 63.4013 185.403 63.2722 181.752C63.2564 177.24 63.2409 172.722 63.3054 168.209C69.5939 164.081 73.7645 159.961 77.204 153.199Z" fill="#8E3B00"/>
<path d="M42.5742 168.089C47.5752 170.715 52.1783 172.441 57.8227 170.683C59.748 170.083 61.5481 169.188 63.3052 168.209C63.2407 172.722 63.2562 177.24 63.2721 181.752C63.4011 185.403 65.2484 187.699 67.8177 190.084C68.1437 190.386 68.4773 190.679 68.8185 190.965C67.5994 191.67 66.3153 192.191 64.9812 192.636L63.9177 193.008C62.1203 193.627 60.3342 194.111 58.4574 194.418C57.9363 194.508 57.2788 194.543 56.7882 194.717C54.8167 194.925 52.8662 195.13 50.8804 195.084L49.6118 195.032C47.7995 194.882 46.0006 194.629 44.2309 194.208L42.6195 193.794C40.7068 193.198 38.9807 192.466 37.2134 191.521L36.4902 191.033C37.5309 190.315 38.5451 189.538 39.443 188.645C41.6912 186.411 42.7145 184.068 42.7383 180.895C42.7446 176.624 42.7681 172.357 42.5742 168.089Z" fill="#FA9F5E"/>
<path d="M51.68 110.474C52.6308 107.507 53.2009 104.497 53.6889 101.426C54.0228 104.475 54.5731 107.561 55.6211 110.451C65.9244 113.904 74.1649 117.121 81.3568 125.87C81.3437 126.971 81.2883 128.091 81.3351 129.19L81.19 132.786C80.8378 136.746 80.5562 140.817 79.784 144.72C79.5853 145.885 79.3183 147.014 79.0182 148.157C78.5744 149.916 77.9437 151.545 77.2038 153.199C73.7643 159.961 69.5937 164.08 63.3052 168.209C61.548 169.188 59.7479 170.083 57.8227 170.683C52.1782 172.441 47.5751 170.715 42.5741 168.089C38.2623 165.163 34.8937 162.081 31.9473 157.773C29.9569 154.6 28.6846 151.34 27.4756 147.815C27.1107 146.377 26.7686 144.947 26.4989 143.486C25.7419 139.816 25.6381 135.853 25.4274 132.12C25.4664 131.115 25.418 130.094 25.4077 129.088L25.3647 125.621C26.2685 124.203 27.717 122.974 28.9677 121.871C35.6208 116 43.3625 113.068 51.68 110.474Z" fill="#FFD0AE"/>
<path d="M37.2024 131.459C37.6085 131.439 38.0103 131.485 38.4105 131.552C39.562 131.744 40.9835 132.376 41.6455 133.385C41.8302 133.667 41.8123 133.541 41.7557 133.81C41.4297 133.504 41.093 133.239 40.7119 133.003C39.4628 132.232 38.1676 132.365 36.8073 132.708L36.6016 132.761C35.4194 133.265 34.666 134.243 33.5407 134.782C33.2701 134.912 33.1886 134.992 32.897 134.881C32.9457 134.635 33.0175 134.479 33.1493 134.264C34.1513 132.631 35.3567 131.877 37.2024 131.459Z" fill="#FFD0AE"/>
<path d="M64.6438 131.972C66.0592 131.221 67.4231 130.892 69.0153 131.349C70.8179 131.867 71.9885 133.258 72.8195 134.867C73.0097 135.236 73.147 135.627 73.2754 136.02L73.126 135.894C71.0875 134.143 69.9619 132.072 66.8469 132.343C66.2862 132.391 65.7207 132.53 65.1756 132.666C64.5905 133.015 64.1041 133.889 63.4665 134.032L63.3818 133.766C63.5374 132.885 63.9659 132.519 64.6438 131.972Z" fill="#FFD0AE"/>
<path d="M65.1757 124.773C67.1076 124.655 69.3713 124.431 71.1708 125.246C73.4527 126.279 74.4849 128.459 75.2796 130.678L73.4183 128.402C68.9607 124.667 67.5039 127.474 63.3415 127.605C62.9504 127.43 62.9349 127.412 62.7187 127.041C62.6886 126.591 62.716 126.255 62.9775 125.87C63.455 125.166 64.4038 124.948 65.1757 124.773Z" fill="#8E3B00"/>
<path d="M36.1592 124.751C37.8677 124.658 39.7353 124.48 41.4341 124.723C42.3786 124.859 43.2512 125.179 43.7842 126.02C44.0122 126.38 44.0365 126.541 43.9248 126.942C42.7597 127.937 39.8787 126.805 38.4764 126.597C37.7493 126.489 36.9813 126.535 36.2474 126.555C33.743 127.046 32.1325 128.085 30.5957 130.11C30.8462 129.385 31.1061 128.654 31.4818 127.984C32.5663 126.049 34.129 125.341 36.1592 124.751Z" fill="#8E3B00"/>
<path d="M66.4893 133.276C67.0576 133.203 67.6386 133.156 68.1996 133.306C69.1773 133.569 70.0183 134.286 70.4855 135.176C70.974 136.108 71.0991 137.247 70.7789 138.253C70.4048 139.429 69.587 140.101 68.5228 140.65C68.0544 140.687 67.5564 140.725 67.0907 140.652C66.184 140.51 65.3284 139.995 64.7884 139.252C64.1568 138.383 63.9638 137.267 64.1857 136.224C64.4816 134.834 65.3317 134.006 66.4893 133.276Z" fill="#4B2D10"/>
<path d="M68.7123 135.166C69.0368 135.562 69.189 135.787 69.2629 136.299C69.1384 136.815 68.9665 136.951 68.5662 137.272C68.4091 137.16 68.281 137.029 68.1425 136.895C68.0402 136.159 68.3072 135.739 68.7123 135.166Z" fill="#684236"/>
<path d="M51.7087 143.782C52.7868 143.698 53.8129 143.777 54.793 144.276C55.6394 144.707 56.3724 145.407 56.6396 146.341C56.8314 147.011 56.7471 147.711 56.3709 148.301C55.7015 149.35 54.5105 149.717 53.3651 149.977C52.3314 150.038 51.3413 149.973 50.3956 149.511C49.554 149.1 48.804 148.404 48.5209 147.489C48.3179 146.834 48.3876 146.14 48.7428 145.55C49.3713 144.507 50.5822 144.049 51.7087 143.782Z" fill="#FFD0AE"/>
<path d="M38.0658 133.26C38.7543 133.231 39.4072 133.223 40.0613 133.473C41.0508 133.85 41.8392 134.627 42.2215 135.616C42.5895 136.568 42.5621 137.684 42.1365 138.613C41.6261 139.727 40.7884 140.33 39.6622 140.725C38.9895 140.774 38.3239 140.754 37.6819 140.522C36.7691 140.192 36.0279 139.527 35.6176 138.645C35.1818 137.708 35.158 136.596 35.5275 135.634C36.0188 134.357 36.8638 133.779 38.0658 133.26Z" fill="#4B2D10"/>
<path d="M39.5109 135.282C39.7027 135.351 39.9888 135.43 40.1471 135.555C40.498 135.834 40.5233 136.027 40.6134 136.436C40.4788 136.933 40.3473 137.076 39.9629 137.417C39.797 137.343 39.5833 137.262 39.4345 137.151C39.072 136.883 38.9521 136.682 38.8501 136.252C39.0105 135.718 39.1161 135.648 39.5109 135.282Z" fill="#684236"/>
<path d="M47.1786 155.34C51.2226 155.342 55.2629 155.466 59.306 155.473C59.6338 155.457 60.0042 155.4 60.3138 155.527C60.5004 155.604 60.4818 155.74 60.5372 155.915C60.0103 158.085 58.7286 159.928 56.7946 161.074C55.1195 162.067 53.1329 162.451 51.2375 161.932C49.3421 161.412 47.3767 159.888 46.4621 158.112C46.1288 157.465 45.5063 156.22 45.734 155.538C46.1333 155.273 46.5044 155.326 46.9637 155.334L47.1786 155.34Z" fill="#FA9F5E"/>
<path d="M47.1787 155.339C51.2227 155.341 55.2631 155.466 59.3061 155.472C59.1844 155.647 59.0763 155.798 58.9311 155.952C57.6792 157.28 55.2153 157.656 53.4636 157.671C51.132 157.692 48.8683 156.992 47.1787 155.339Z" fill="#FFD0AE"/>
<path d="M177.207 146.794C177.057 151.245 202.518 157.803 200.172 161.616C199.058 163.427 197.785 165.171 196.794 167.054C193.202 173.88 192.332 182.065 195.142 189.329C196.17 191.986 197.667 194.436 199.277 196.777C198.574 197.31 198.128 197.892 197.714 198.671C195.559 202.726 192.981 214.785 192.315 219.631C191.577 224.999 191.373 230.487 190.334 235.805C189.707 234.821 189.247 231.993 188.824 230.729C188.233 228.959 187.145 227.41 185.922 226.018C181.275 220.729 175.834 219.57 169.849 216.612C168.046 215.723 166.242 214.858 164.397 214.06C163.026 213.179 161.616 212.387 160.193 211.595C159.19 211.019 156.327 207.573 155.371 206.534L155.376 202.681L155.425 194.163C150.175 196.797 143.229 197.424 137.616 195.573C136.94 195.35 136.21 195.084 135.6 194.718C134.571 193.928 133.148 193.404 132.022 192.72C124.853 188.361 121.378 180.697 119.444 172.865L119.315 172.858C118.72 173.194 118.068 173.357 117.385 173.304C115.352 173.146 113.856 171.577 112.622 170.111C111.504 168.213 110.764 166.161 110.726 163.941C110.678 161.164 111.577 158.961 113.504 156.962C113.3 155.792 113.484 154.332 113.515 153.14C113.615 149.296 113.446 146.089 114.153 141.651C119.64 107.214 172.702 110.721 177.207 146.794Z" fill="#4B2D10"/>
<path d="M107.156 107.997C112.734 110.65 118.842 111.835 124.821 109.709C126.05 109.272 127.223 108.725 128.396 108.157C128.385 110.282 128.352 112.4 128.269 114.524C128.338 115.78 128.896 119.628 129.651 120.742C122.643 123.748 116.502 130.746 114.645 138.981C114.447 139.863 114.286 140.758 114.152 141.651C107.697 139.372 102.876 136.306 98.9556 130.617C100.595 129.851 102.075 129.038 103.373 127.756C107.621 123.561 107.054 118.467 107.111 112.993C107.089 111.324 107.092 109.666 107.156 107.997Z" fill="#FA9F5E"/>
<path d="M153.257 148.994C154.252 146.482 155.047 143.932 155.734 141.319C156.125 139.83 156.416 138.287 156.878 136.821C157.653 140.945 157.999 144.848 157.777 149.047C162.283 149.06 166.816 148.887 171.314 148.955C172.053 151.416 172.666 153.875 173.218 156.383C174.478 156.037 175.476 156.197 176.617 156.836C177.16 157.14 177.666 157.547 178.165 157.918C179.933 160.567 180.911 163.332 180.285 166.531C180.058 167.688 179.643 168.802 179.242 169.907C178.153 171.439 176.893 173.064 174.922 173.421C173.617 173.656 172.658 173.296 171.497 172.771C169.681 180.542 165.144 188.37 158.265 192.689C157.379 193.245 156.406 193.796 155.425 194.163C150.174 196.797 143.228 197.424 137.615 195.573C136.94 195.35 136.21 195.083 135.6 194.718C134.57 193.928 133.147 193.404 132.021 192.72C124.852 188.361 121.378 180.697 119.444 172.865L119.315 172.858C118.72 173.194 118.067 173.357 117.384 173.304C115.352 173.146 113.855 171.577 112.621 170.111C111.504 168.213 110.763 166.161 110.725 163.941C110.678 161.164 111.576 158.961 113.503 156.962C114.638 156.226 115.661 155.864 117.022 155.734C117.506 153.487 118.13 151.289 118.762 149.08C130.259 148.941 141.762 149.145 153.257 148.994Z" fill="#FFD0AE"/>
<path d="M157.664 153.099C159.682 152.972 161.892 153.245 163.657 154.315C164.251 154.676 165.065 155.325 165.124 156.087C165.153 156.466 165.032 156.564 164.788 156.801C163.75 157.093 162.2 155.99 161.223 155.552C160.072 155.176 158.477 154.863 157.283 155.137C156.195 155.387 154.777 156.645 153.647 156.229C153.4 156.138 153.395 155.986 153.285 155.768C153.318 155.374 153.384 155.106 153.618 154.79C154.431 153.689 156.377 153.292 157.664 153.099Z" fill="#8E3B00"/>
<path d="M129.949 153.244C131.441 153.09 132.856 153.144 134.288 153.637C135.208 153.953 136.384 154.462 136.831 155.382C136.801 155.809 136.817 155.85 136.546 156.173C135.302 156.558 133.937 155.522 132.732 155.245C132.145 155.11 131.468 155.157 130.868 155.164C129.22 155.422 126.445 157.042 125.363 156.993C125.137 156.983 124.97 156.849 124.854 156.65C124.681 156.35 124.655 156.025 124.826 155.72C125.586 154.368 128.51 153.515 129.949 153.244Z" fill="#8E3B00"/>
<path d="M158.284 159.323C158.693 159.346 159.122 159.358 159.513 159.491C160.323 159.767 160.993 160.478 161.325 161.255C161.772 162.299 161.766 163.561 161.287 164.593C160.798 165.648 160.08 166.111 159.012 166.485C158.508 166.462 158.065 166.419 157.603 166.197C156.774 165.797 156.17 165.02 155.889 164.152C155.538 163.071 155.615 161.853 156.176 160.858C156.673 159.978 157.34 159.593 158.284 159.323Z" fill="#4B2D10"/>
<path d="M131.24 159.164C131.706 159.207 132.156 159.27 132.597 159.436C133.484 159.771 134.22 160.522 134.594 161.388C135.009 162.352 135.041 163.458 134.61 164.421C134.113 165.531 133.348 165.955 132.255 166.377C131.66 166.46 131.125 166.362 130.586 166.095C129.726 165.669 129.141 164.91 128.839 164.008C128.473 162.912 128.551 161.666 129.125 160.656C129.624 159.778 130.299 159.431 131.24 159.164Z" fill="#4B2D10"/>
<path d="M173.297 158.186C174.396 158.515 175.314 159.005 176.115 159.843C177.307 161.091 177.988 162.935 177.883 164.661C177.732 167.096 176.099 169.192 174.327 170.723C174.02 170.988 173.701 171.238 173.383 171.488C172.931 171.843 172.479 172.262 171.881 172.19C171.818 171.884 171.788 171.958 171.861 171.721C173.191 167.402 173.631 162.68 173.297 158.186Z" fill="#FA9F5E"/>
<path d="M119.315 172.858C119.272 172.772 119.232 172.684 119.187 172.599C118.721 171.729 117.392 170.885 116.651 170.221C114.42 168.219 112.437 164.927 113.157 161.843C113.493 160.405 114.192 159.216 115.497 158.47C116.007 158.18 116.588 158.005 117.143 157.821C117.233 161.039 117.719 164.301 118.368 167.454C118.724 169.186 119.404 171.106 119.444 172.865L119.315 172.858Z" fill="#FA9F5E"/>
<path d="M152.374 179.317C152.486 179.32 152.586 179.318 152.699 179.34C153.137 179.423 153.198 179.467 153.463 179.8C153.52 180.267 153.48 180.583 153.284 181.006C152.465 182.769 150.57 183.915 148.785 184.515C145.536 185.607 142.246 185.155 139.223 183.657C138.294 183.156 137.419 182.176 136.978 181.214C136.772 180.764 136.752 180.476 136.938 180.004C137.319 179.645 137.574 179.54 138.083 179.51C140 179.397 142.01 179.861 143.948 179.883C146.769 179.917 149.564 179.51 152.374 179.317Z" fill="#FA9F5E"/>
<path d="M178.393 97.9351C184.461 100.633 190.373 101.344 196.689 98.8864C197.206 98.6851 197.714 98.4609 198.221 98.2354C198.257 101.813 197.786 105.7 198.309 109.23C199.098 110.698 200.228 111.995 201.174 113.37L201.257 115.048C201.298 116.445 201.374 117.806 201.545 119.194C202.305 123.276 203.277 127.262 203.81 131.387C203.81 131.438 203.81 131.489 203.809 131.54C203.763 133.231 202.99 134.825 202.961 136.523C202.932 138.208 203.616 139.771 203.744 141.436C203.94 143.985 203.681 146.581 203.782 149.137C203.631 153.588 202.517 157.803 200.172 161.616C199.057 163.427 197.785 165.171 196.794 167.054C193.201 173.88 192.331 182.065 195.141 189.329C196.169 191.986 197.666 194.436 199.276 196.777C198.573 197.31 198.128 197.892 197.714 198.671C195.558 202.726 192.98 214.785 192.314 219.631C191.576 224.999 191.373 230.487 190.333 235.805C189.707 234.821 189.246 231.993 188.824 230.73C188.232 228.959 187.144 227.41 185.921 226.018C181.274 220.729 175.834 219.57 169.848 216.612C168.045 215.723 166.242 214.858 164.396 214.06C163.025 213.18 161.615 212.387 160.192 211.595C159.189 211.019 156.326 207.573 155.37 206.534L155.375 202.681L155.425 194.163C156.406 193.797 157.379 193.245 158.265 192.689C165.143 188.37 169.681 180.542 171.497 172.772C172.658 173.296 173.617 173.657 174.922 173.421C176.893 173.065 178.153 171.439 179.242 169.908C179.643 168.803 180.058 167.688 180.285 166.532C180.911 163.333 179.933 160.567 178.165 157.919C177.951 153.334 177.656 148.737 176.955 144.197C175.651 135.761 169.375 128.517 162.189 123.247C163.191 120.742 168.84 117.645 170.359 117.289C170.83 117.179 171.011 117.392 171.39 117.624C173.886 114.792 176.189 112.02 178.387 108.941C178.329 106.74 178.329 104.543 178.345 102.341C178.326 100.87 178.298 99.4046 178.393 97.9351Z" fill="#B48100"/>
<path d="M178.393 97.9351C184.461 100.633 190.373 101.344 196.689 98.8864C197.206 98.6851 197.714 98.4609 198.221 98.2354C198.258 101.813 197.786 105.7 198.309 109.23C199.099 110.698 200.228 111.995 201.174 113.37L201.257 115.048C201.298 116.445 201.374 117.806 201.545 119.194C200.08 119.391 198.325 120.341 196.902 120.842C195.286 121.41 193.576 121.735 191.885 121.989C185.459 122.955 176.713 121.54 171.391 117.624C173.886 114.792 176.189 112.02 178.387 108.941C178.33 106.74 178.329 104.543 178.345 102.341C178.326 100.87 178.298 99.4046 178.393 97.9351Z" fill="#FA9F5E"/>
<path d="M171.497 172.772C172.658 173.296 173.617 173.657 174.922 173.421C176.893 173.065 178.153 171.439 179.242 169.908C179.236 173.899 179.383 177.87 179.528 181.858C179.804 189.475 180.208 197.172 182.299 204.539C175.281 207.997 167.723 209.693 160.192 211.595C159.189 211.019 156.326 207.573 155.37 206.534L155.375 202.681L155.425 194.164C156.406 193.797 157.379 193.245 158.265 192.689C165.143 188.371 169.681 180.542 171.497 172.772Z" fill="#4B2D10"/>
<path d="M187.508 68.1362C187.533 69.0648 186.582 70.4779 186.221 71.3882C185.988 71.9746 185.776 72.7067 186.113 73.3004C186.783 74.4796 189.041 73.9173 190.147 74.2658C190.502 74.3773 190.453 74.4488 190.622 74.7559L190.467 74.3885L190.41 74.6986L190.605 74.4885L190.441 74.9049C189.968 75.1858 189.687 75.2208 189.142 75.2193C187.839 75.2366 186.129 75.434 184.978 74.6828C184.558 74.4089 184.32 74.0693 184.237 73.5666C183.958 71.8881 186.477 69.366 187.508 68.1362Z" fill="#FA9F5E"/>
<path d="M53.1174 143.287C53.1334 144.201 52.5391 145.594 52.313 146.491C52.1675 147.068 52.0349 147.79 52.2457 148.375C52.6646 149.536 54.0755 148.982 54.7673 149.326C54.9889 149.436 54.9585 149.506 55.0643 149.809L54.9668 149.447L54.9313 149.752L55.0532 149.545L54.9507 149.955C54.6552 150.232 54.4798 150.267 54.1387 150.265C53.3246 150.282 52.256 150.477 51.536 149.737C51.2735 149.467 51.1253 149.132 51.073 148.637C50.8985 146.983 52.4732 144.498 53.1174 143.287Z" fill="#FA9F5E"/>
<path d="M142.222 170.341C142.238 170.864 141.644 171.659 141.418 172.172C141.272 172.502 141.139 172.914 141.35 173.248C141.769 173.912 143.18 173.596 143.872 173.792C144.093 173.854 144.063 173.895 144.169 174.068L144.071 173.861L144.036 174.035L144.158 173.917L144.055 174.152C143.76 174.31 143.584 174.329 143.243 174.329C142.429 174.338 141.36 174.449 140.641 174.026C140.378 173.872 140.23 173.681 140.177 173.398C140.003 172.453 141.578 171.033 142.222 170.341Z" fill="#FA9F5E"/>
<path d="M234.844 139.278C234.864 139.801 234.121 140.597 233.838 141.109C233.656 141.439 233.491 141.851 233.754 142.186C234.278 142.85 236.041 142.533 236.906 142.729C237.183 142.792 237.145 142.832 237.277 143.005L237.156 142.798L237.111 142.973L237.264 142.855L237.135 143.089C236.766 143.247 236.547 143.267 236.12 143.266C235.103 143.276 233.767 143.387 232.867 142.964C232.539 142.81 232.354 142.619 232.288 142.336C232.07 141.391 234.039 139.971 234.844 139.278Z" fill="#8E3B00"/>
<path d="M149.119 170.341C149.103 170.864 149.697 171.659 149.923 172.172C150.069 172.502 150.201 172.914 149.991 173.248C149.572 173.912 148.161 173.596 147.469 173.792C147.247 173.854 147.278 173.895 147.172 174.068L147.269 173.861L147.305 174.035L147.183 173.917L147.286 174.152C147.581 174.31 147.757 174.329 148.098 174.329C148.912 174.338 149.98 174.449 150.7 174.026C150.963 173.872 151.111 173.681 151.163 173.398C151.338 172.453 149.763 171.033 149.119 170.341Z" fill="#FA9F5E"/>
<path d="M242.714 139.278C242.694 139.801 243.437 140.597 243.72 141.109C243.902 141.439 244.067 141.851 243.804 142.186C243.28 142.85 241.517 142.533 240.652 142.729C240.375 142.792 240.413 142.832 240.281 143.005L240.403 142.798L240.447 142.973L240.295 142.855L240.423 143.089C240.792 143.247 241.011 143.267 241.438 143.266C242.455 143.276 243.791 143.387 244.691 142.964C245.019 142.81 245.204 142.619 245.27 142.336C245.488 141.391 243.52 139.971 242.714 139.278Z" fill="#8E3B00"/>
</svg>
