<svg width="290" height="290" viewBox="0 0 290 290" fill="none" xmlns="http://www.w3.org/2000/svg">
<g clip-path="url(#clip0_228_2267)">
<path d="M0 289.873C2.86063 289.714 5.75486 289.827 8.61963 289.856L8.75653 290H0V289.873Z" fill="#FEFCFD"/>
<path d="M278.356 289.773C280.114 289.98 282.036 289.839 283.815 289.847C285.859 289.861 287.964 289.997 290 289.907V290H278.249L278.258 289.836L278.356 289.773Z" fill="#F8E9D4"/>
<path d="M11.9008 231.613C15.4017 233.418 18.9417 234.664 22.7385 235.661C23.5963 235.89 24.4517 236.141 25.3304 236.275C26.7622 239.139 28.5242 247.266 29.39 250.754C31.2098 257.744 35.0373 272.061 34.2226 278.976C32.9612 282.458 32.203 286.12 31.0592 289.643L31.0073 290H30.8323H22.7182H8.75653L8.61963 289.855C9.04911 285.106 9.14896 280.278 9.40753 275.511L10.9989 246.769L11.4771 237.571C11.5764 235.598 11.5977 233.566 11.9008 231.613Z" fill="#FFBFAC"/>
<path d="M27.7679 289.83C28.7936 289.844 29.8179 289.83 30.8324 290H22.7183C24.168 289.573 26.2297 289.901 27.7679 289.83Z" fill="#FEFCFD"/>
<path d="M29.3898 250.754C31.2097 257.744 35.0372 272.061 34.2224 278.976C32.961 282.458 32.2029 286.12 31.059 289.643L31.0072 290H30.8322C29.8178 289.83 28.7934 289.844 27.7677 289.83C26.1919 289.731 24.6118 289.753 23.0337 289.753C23.9208 286.219 24.2722 282.335 24.8013 278.726L27.8069 258.808C28.1423 256.709 28.4955 252.545 29.3898 250.754Z" fill="#FCD88D"/>
<path d="M266.945 119.385C266.668 121.969 266.499 124.605 266.013 127.157C268.518 127.645 270.69 128.76 272.168 130.907C273.503 132.846 273.964 135.338 273.501 137.638C273.017 140.038 271.714 141.588 269.917 143.155C272.333 144.814 274.231 146.715 274.791 149.701C274.818 149.85 274.842 150 274.862 150.151C274.882 150.302 274.899 150.453 274.911 150.604C274.924 150.756 274.933 150.907 274.938 151.059C274.943 151.211 274.944 151.363 274.942 151.515C274.94 151.667 274.933 151.819 274.924 151.971C274.914 152.122 274.9 152.274 274.883 152.425C274.866 152.576 274.845 152.726 274.82 152.876C274.795 153.026 274.767 153.175 274.735 153.324C274.703 153.473 274.667 153.62 274.628 153.767C274.589 153.914 274.546 154.06 274.499 154.204C274.453 154.349 274.403 154.493 274.349 154.635C274.296 154.777 274.239 154.918 274.178 155.057C274.118 155.197 274.054 155.335 273.986 155.471C273.919 155.607 273.849 155.742 273.775 155.875C273.701 156.007 273.624 156.138 273.543 156.267C273.463 156.396 273.38 156.523 273.293 156.648C272.277 158.114 270.92 159.121 269.328 159.894C270.892 162.393 271.893 164.692 271.179 167.723C270.655 169.948 269.163 171.986 267.192 173.144C265.752 173.99 264.202 174.315 262.54 174.296C262.453 176.785 261.779 178.691 259.907 180.383C259.644 180.622 259.36 180.822 259.061 181.012C257.754 180.197 256.21 179.578 254.809 178.928C252.057 177.655 249.294 176.41 246.517 175.192C245.176 174.392 243.498 173.892 242.041 173.33C240.874 172.697 239.598 172.26 238.35 171.82L238.186 165.205L238.052 151.469C240.649 150.259 243.094 148.899 245.331 147.096C252.274 141.497 255.89 133.296 256.844 124.565C257.983 124.758 259.07 124.79 260.208 124.578C263.314 124 265.222 121.859 266.945 119.385Z" fill="#1B1742"/>
<path d="M130.934 34.24C135.85 29.3386 142.654 25.8008 149.674 25.5045C157.025 25.1942 163.557 28.3245 168.728 33.4063C170.315 34.9656 171.65 36.7956 173.297 38.287C174.857 39.699 176.821 40.9763 179.012 40.8352C182.186 40.6308 184.685 37.6979 186.591 35.4493C187.912 38.1448 188.473 41.6098 187.907 44.5727C187.26 47.9606 185.062 49.6089 182.374 51.4265C182.649 51.3848 182.923 51.3342 183.196 51.275C187.514 50.3571 190.02 48.5831 192.415 44.8958L192.455 45C193.706 48.3713 194.015 51.9034 193.57 55.4647C192.748 62.0398 189.262 67.7033 184.056 71.7321C183.593 78.3716 183.198 82.6618 179.927 88.6612C179.138 89.4958 177.598 89.5836 176.591 90.2845C176.231 90.4782 175.907 90.6569 175.595 90.9274C175.323 86.1146 174.183 81.3749 173.667 76.593C154.486 80.7219 140.711 63.4167 122.423 70.5954C120.699 71.2722 117.848 72.5449 116.76 74.1045C114.62 77.1713 113.538 87.4981 113.25 91.3074L112.588 92.1463C111.696 91.0959 110.496 89.884 109.205 89.353C109.066 89.2978 108.922 89.1522 108.804 89.0591C107.231 84.2843 106.391 79.026 105.826 74.0377C105.603 72.0666 105.553 70.0403 105.234 68.0859C104.802 65.4328 103.618 63.1434 103.376 60.3168C103.206 58.3296 103.384 56.3117 103.777 54.3599C103.821 54.1401 103.868 53.921 103.917 53.7026C103.966 53.4839 104.018 53.2661 104.073 53.0489C104.127 52.8316 104.185 52.6151 104.245 52.3993C104.305 52.1833 104.367 51.9682 104.432 51.7539C104.497 51.5396 104.565 51.3261 104.636 51.1135C104.706 50.9009 104.779 50.6892 104.855 50.4783C104.931 50.2674 105.009 50.0576 105.09 49.8488C105.171 49.6397 105.254 49.4319 105.34 49.2251C105.426 49.0182 105.515 48.8124 105.606 48.6078C105.697 48.4031 105.791 48.1996 105.887 47.9972C105.983 47.795 106.081 47.5939 106.182 47.3939C106.283 47.194 106.387 46.9953 106.493 46.7978C106.599 46.6005 106.707 46.4045 106.818 46.2099C106.929 46.015 107.042 45.8217 107.158 45.6299C107.273 45.4379 107.391 45.2474 107.511 45.0584C107.632 44.8694 107.754 44.6819 107.879 44.4959C108.004 44.31 108.131 44.1256 108.26 43.9428C108.39 43.7599 108.521 43.5786 108.655 43.3991C108.789 43.2193 108.925 43.0414 109.063 42.8652C109.202 42.6889 109.342 42.5144 109.485 42.3416C109.627 42.1689 109.772 41.9979 109.919 41.8287C110.065 41.6594 110.214 41.4919 110.365 41.3263C110.516 41.1607 110.669 40.9971 110.824 40.8352C110.979 40.6734 111.136 40.5136 111.295 40.3558C111.454 40.1979 111.614 40.042 111.777 39.8879C111.94 39.7341 112.104 39.5822 112.271 39.4323C112.437 39.2823 112.606 39.1345 112.776 38.9888C112.946 38.843 113.118 38.6993 113.291 38.5577C113.465 38.4163 113.641 38.277 113.818 38.1397C113.995 38.0025 114.173 37.8675 114.354 37.7347C114.534 37.602 114.716 37.4715 114.9 37.3431C115.083 37.2147 115.269 37.0887 115.455 36.965C120.41 33.7036 125.22 33.044 130.934 34.24Z" fill="#462F6E"/>
<path d="M113.25 91.3071C113.538 87.4977 114.619 77.171 116.759 74.1042C117.848 72.5446 120.698 71.2719 122.423 70.595C140.711 63.4164 154.486 80.7215 173.666 76.5927C174.182 81.3746 175.323 86.1143 175.595 90.927C175.906 90.6566 176.231 90.4779 176.591 90.2842C177.598 89.5832 179.138 89.4954 179.927 88.6608C180.49 88.5977 181.034 88.541 181.601 88.5512L182.689 89.5762L182.988 89.5773C185.272 90.6945 186.743 92.2887 187.553 94.7106C188.874 98.659 187.99 102.787 186.257 106.451C185.649 107.078 185.062 107.761 184.338 108.255C184.006 108.492 183.662 108.703 183.391 109.01C181.051 110.289 178.628 110.289 176.033 110.125C175.197 119.547 171.696 128.38 164.258 134.531C162.875 135.674 160.201 136.939 159.167 137.992C153.533 141.68 145.635 143.402 139.029 142.044C136.282 141.479 133.796 140.456 131.457 138.92C130.406 138.284 129.354 137.595 128.363 136.871C122.371 132.497 117.296 124.377 115.017 117.307C114.286 115.041 113.879 112.721 113.499 110.377C113.306 109.119 113.097 107.863 112.872 106.61C112.38 104.03 112.238 101.141 112.288 98.5189C112.332 97.1991 112.228 95.8624 112.176 94.5424L111.728 94.1465C110.924 92.5288 110.083 90.9309 109.205 89.3527C110.495 89.8837 111.696 91.0955 112.587 92.1459L113.25 91.3071Z" fill="#FFBFAC"/>
<path d="M154.931 89.8544C159.833 89.3613 164.645 88.7986 169.54 89.8034C167.267 90.8767 161.762 90.18 159.026 90.3174C157.847 90.3766 156.611 91.1186 155.449 90.9838C155.122 90.6822 155.052 90.267 154.931 89.8544Z" fill="#F8A596"/>
<path d="M160.432 94.1733C160.794 94.1546 161.181 94.1186 161.541 94.1744C162.248 94.284 162.89 94.7881 163.286 95.3661C163.974 96.3707 164.115 97.8348 163.865 99.003C163.601 100.235 163.056 100.929 162.024 101.62C161.702 101.695 161.372 101.791 161.038 101.763C160.392 101.709 159.746 101.381 159.341 100.875C158.624 99.9778 158.49 98.6456 158.614 97.5426C158.773 96.1294 159.306 95.0388 160.432 94.1733Z" fill="#2A0631"/>
<path d="M161.258 95.355C161.404 95.3793 161.64 95.4003 161.78 95.4643C162.135 95.6266 162.192 95.7509 162.366 96.0777C162.365 96.5645 162.221 96.814 161.975 97.227C161.925 97.2173 161.875 97.2108 161.826 97.1984C161.385 97.0871 161.168 96.905 160.949 96.5147C160.895 96.0097 161.009 95.7894 161.258 95.355Z" fill="#FEFCFD"/>
<path d="M125.742 81.7617C127.987 81.4944 133.839 81.6532 135.637 83.1457C136.121 83.5484 136.408 84.1086 136.419 84.7418C136.437 85.8364 135.644 87.0887 134.918 87.8579C132.758 87.3872 130.611 87.0525 128.415 86.8061C124.631 86.7495 121.253 87.0834 117.608 88.1609C117.821 86.6727 118.004 85.2609 118.634 83.884C120.56 82.3612 123.381 81.9956 125.742 81.7617Z" fill="#462F6E"/>
<path d="M161.303 81.6257C163.866 81.5294 167.88 81.7931 169.972 83.4736C171.306 84.5458 171.251 86.6506 171.428 88.2179C168.963 87.4305 166.583 87.0329 164.01 86.8061C160.219 86.7322 157.344 87.3292 153.686 87.7024C153.317 86.9046 152.919 85.9131 152.866 85.025C152.828 84.3671 152.969 83.7104 153.421 83.212C154.891 81.5898 159.208 81.7212 161.303 81.6257Z" fill="#462F6E"/>
<path d="M149.814 90.7664C149.862 90.3702 149.07 89.8894 149.397 89.6319C156.469 87.6512 165.871 87.7551 168.446 88.14C170.144 88.394 171.958 89.0853 173.435 89.957C173.923 90.2453 174.443 90.6789 174.958 90.8972C175.25 91.021 175.323 91.0632 175.595 90.9269C175.906 90.6565 176.231 90.4778 176.591 90.2841C176.656 90.2855 176.721 90.2892 176.786 90.2886C177.457 90.2821 178.399 89.2612 178.959 89.744C178.912 90.1408 178.59 90.2354 178.802 90.5191C178.24 91.3348 177.626 92.1425 177.212 93.0447L176.427 93.8159L175.295 94.9258C175.533 99.1931 174.805 103.505 171.876 106.793C169.655 109.285 166.43 110.711 163.112 110.877C159.383 111.063 155.753 109.872 152.984 107.348C149.799 104.444 147.953 100.184 147.796 95.8949C147.76 94.9162 147.827 93.9482 147.951 92.9776C145.597 93.0465 143.242 93.0722 140.887 93.0547C140.992 98.1917 140.037 102.937 136.337 106.767C133.874 109.316 130.671 110.831 127.105 110.864C126.892 110.864 126.679 110.858 126.466 110.848C126.254 110.838 126.041 110.822 125.829 110.801C125.617 110.78 125.406 110.754 125.196 110.723C124.985 110.691 124.775 110.655 124.566 110.613C124.358 110.572 124.15 110.525 123.943 110.473C123.737 110.421 123.532 110.364 123.328 110.301C123.124 110.24 122.922 110.172 122.722 110.1C122.522 110.028 122.323 109.951 122.127 109.869C121.93 109.788 121.736 109.701 121.543 109.609C121.351 109.518 121.161 109.422 120.973 109.321C120.786 109.22 120.601 109.115 120.419 109.005C120.236 108.895 120.057 108.78 119.88 108.661C119.703 108.542 119.53 108.419 119.359 108.292C119.189 108.164 119.021 108.033 118.857 107.897C118.693 107.761 118.532 107.622 118.375 107.478C118.218 107.335 118.064 107.187 117.915 107.036C115.084 104.229 113.216 100.138 113.237 96.1237C113.239 95.7452 113.255 95.3672 113.286 94.9898L112.176 94.5423L111.728 94.1464C110.924 92.5287 110.083 90.9308 109.205 89.3526C110.495 89.8836 111.696 91.0955 112.587 92.1459L113.25 91.307C114.946 90.3232 116.693 89.2705 118.581 88.6993C123.158 87.3141 137.495 88.3591 139.336 90.2085C139.81 90.6259 138.692 90.7346 138.911 91.3328C138.341 90.7664 135.467 90.032 134.73 89.9431C129.806 89.1218 124.594 89.2232 119.666 89.9895C118.013 90.3342 116.636 91.0113 115.684 92.4769C114.488 94.3183 114.669 96.9923 115.142 99.0566C115.916 102.441 118.034 105.729 121.005 107.581C123.451 109.107 126.643 109.711 129.462 109.04C132.686 108.272 135.403 105.925 137.09 103.13C138.86 100.198 139.882 95.9869 138.992 92.6097C138.834 92.006 138.609 91.4361 138.341 90.8734C138.748 90.5432 137.332 89.9069 137.778 89.6319C138.13 89.4023 140.327 89.4393 140.819 89.4393C141.46 89.4393 148.435 89.4053 149.112 89.556C149.605 89.6659 150.097 89.8746 150.39 90.3079C150.418 90.3501 150.44 90.3965 150.464 90.441C150.107 91.546 149.628 92.7069 149.397 93.8397C148.891 96.3163 149.901 99.9034 151.018 102.107C152.56 105.145 155.189 107.701 158.471 108.753C161.472 109.715 164.962 109.626 167.776 108.127C170.389 106.735 172.238 104.168 173.08 101.362C173.935 98.51 174.135 94.4735 173.262 91.6083C172.152 90.6064 170.954 90.177 169.539 89.8029C164.644 88.7981 152.929 89.2087 149.814 90.7664Z" fill="#158DCB"/>
<path d="M119.666 89.99C124.594 89.2236 129.806 89.1223 134.73 89.9435C134.439 90.1792 134.128 90.4621 133.741 90.5077C131.871 90.7283 129.842 90.116 127.943 90.1545C125.672 90.2001 122.783 90.9826 120.612 90.7224C120.148 90.6666 119.929 90.3313 119.666 89.99Z" fill="#F8A596"/>
<path d="M126.317 95.241C126.732 94.6197 127.155 94.1269 127.93 93.9978C128.478 93.906 129.021 94.051 129.464 94.3823C130.415 95.094 130.895 96.5922 131.007 97.7273C131.114 98.8054 130.909 99.9646 130.183 100.804C129.712 101.349 129.056 101.707 128.329 101.725C128.249 101.727 128.17 101.726 128.091 101.72C128.013 101.714 127.934 101.704 127.856 101.69C127.778 101.676 127.702 101.658 127.626 101.635C127.55 101.613 127.475 101.587 127.402 101.557C127.329 101.527 127.257 101.493 127.188 101.456C127.118 101.418 127.05 101.377 126.985 101.332C126.92 101.288 126.857 101.24 126.797 101.189C126.736 101.137 126.679 101.083 126.624 101.026C125.777 100.152 125.657 98.8091 125.717 97.6533C125.739 97.224 125.792 96.7955 125.845 96.369C125.973 95.9592 126.116 95.6202 126.317 95.241Z" fill="#2A0631"/>
<path d="M179.927 88.6611C180.49 88.5979 181.034 88.5413 181.601 88.5515L182.689 89.5764L182.988 89.5775C185.272 90.6948 186.743 92.2889 187.553 94.7109C188.874 98.6593 187.99 102.787 186.257 106.451C185.649 107.078 185.062 107.762 184.338 108.255C184.006 108.492 183.662 108.703 183.391 109.01C181.051 110.29 178.628 110.289 176.033 110.125C175.197 119.547 171.697 128.381 164.258 134.531C162.875 135.674 160.201 136.939 159.167 137.992C153.533 141.68 145.635 143.402 139.029 142.044C136.282 141.479 133.796 140.456 131.457 138.92C130.406 138.284 129.355 137.595 128.363 136.871C122.371 132.497 117.296 124.377 115.017 117.307C114.286 115.041 113.879 112.721 113.499 110.377C113.306 109.119 113.097 107.863 112.872 106.61C112.381 104.031 112.238 101.141 112.288 98.5191C112.332 97.1994 112.228 95.8627 112.176 94.5426L113.286 94.9901C113.255 95.3675 113.239 95.7455 113.238 96.1241C113.216 100.138 115.084 104.229 117.915 107.036C118.065 107.187 118.218 107.335 118.375 107.479C118.532 107.622 118.693 107.762 118.857 107.897C119.021 108.033 119.189 108.165 119.359 108.292C119.53 108.42 119.704 108.543 119.88 108.662C120.057 108.78 120.237 108.895 120.419 109.005C120.601 109.115 120.786 109.22 120.973 109.321C121.161 109.422 121.351 109.518 121.543 109.61C121.736 109.701 121.93 109.788 122.127 109.87C122.323 109.952 122.522 110.029 122.722 110.101C122.922 110.173 123.125 110.24 123.328 110.302C123.532 110.364 123.737 110.421 123.943 110.473C124.15 110.525 124.358 110.572 124.566 110.614C124.775 110.655 124.985 110.692 125.196 110.723C125.406 110.754 125.618 110.781 125.83 110.801C126.041 110.822 126.254 110.838 126.467 110.848C126.679 110.859 126.892 110.864 127.105 110.864C130.672 110.831 133.874 109.316 136.337 106.767C140.038 102.937 140.992 98.192 140.887 93.055C143.242 93.0725 145.597 93.0469 147.951 92.978C147.827 93.9485 147.761 94.9165 147.797 95.8952C147.953 100.184 149.799 104.445 152.984 107.348C155.753 109.872 159.383 111.063 163.112 110.877C166.43 110.712 169.655 109.286 171.876 106.793C174.806 103.506 175.533 99.1934 175.295 94.9261L176.427 93.8162L177.212 93.0451C177.627 92.1428 178.24 91.3351 178.802 90.5195C178.59 90.2357 178.912 90.1411 178.959 89.7443C178.399 89.2615 177.457 90.2824 176.787 90.2889C176.721 90.2895 176.656 90.2858 176.591 90.2844C177.598 89.5835 179.138 89.4957 179.927 88.6611Z" fill="#FFBFAC"/>
<path d="M179.927 88.6611C180.49 88.5979 181.034 88.5413 181.601 88.5515L182.689 89.5764C181.302 89.6707 179.937 89.6033 178.802 90.5195C178.59 90.2357 178.912 90.1411 178.959 89.7443C178.4 89.2615 177.457 90.2824 176.787 90.2889C176.722 90.2895 176.656 90.2858 176.591 90.2844C177.598 89.5835 179.138 89.4957 179.927 88.6611Z" fill="#3798A2"/>
<path d="M143.83 104.6C143.875 104.601 143.921 104.601 143.966 104.603C144.384 104.625 144.589 104.631 144.859 104.944C144.851 105.854 143.949 106.955 143.669 107.869C143.477 108.498 143.399 109.296 143.779 109.875C144.146 110.432 144.793 110.602 145.411 110.707C145.738 110.762 145.957 110.79 146.243 110.973C146.365 111.352 146.36 111.38 146.243 111.762C145.924 111.814 145.603 111.867 145.281 111.894C144.48 111.962 143.717 111.822 143.1 111.277C142.443 110.697 142.203 109.831 142.184 108.981C142.15 107.446 142.769 105.712 143.83 104.6Z" fill="#D86A6D"/>
<path d="M162.715 111.919C164.117 111.829 165.814 112.171 167.018 112.89C167.866 113.397 168.588 114.164 168.82 115.146C169.015 115.974 168.806 116.845 168.342 117.547C167.371 119.02 165.672 119.502 164.04 119.822C162.49 119.84 160.949 119.722 159.575 118.917C158.318 118.182 157.772 117.181 157.402 115.832C157.575 115.083 157.74 114.484 158.235 113.87C159.346 112.49 161.048 112.113 162.715 111.919Z" fill="#F8A596"/>
<path d="M124.581 111.91C126.218 111.737 127.742 111.833 129.227 112.607C130.186 113.105 131.095 113.888 131.379 114.971C131.6 115.812 131.393 116.696 130.932 117.42C130.064 118.779 128.526 119.384 127.029 119.755C125.325 119.855 123.631 119.817 122.123 118.889C121.186 118.311 120.402 117.394 120.172 116.298C120.001 115.482 120.162 114.673 120.636 113.986C121.534 112.684 123.099 112.176 124.581 111.91Z" fill="#F8A596"/>
<path d="M176.428 93.8161L177.213 93.0449C177.11 93.9316 177.234 94.683 177.364 95.5564C178.485 94.609 179.55 93.9829 181.088 94.1035C181.237 94.1149 181.385 94.1339 181.532 94.1607C181.679 94.1875 181.824 94.222 181.967 94.2641C182.111 94.306 182.251 94.3553 182.389 94.4119C182.528 94.4686 182.662 94.5323 182.794 94.6031C182.925 94.6739 183.053 94.7513 183.177 94.8353C183.3 94.9193 183.419 95.0096 183.533 95.1061C183.647 95.2025 183.755 95.3047 183.859 95.4125C183.962 95.5203 184.059 95.6332 184.151 95.7512C184.986 96.8229 185.395 98.2137 185.182 99.564C184.776 102.138 182.362 104.433 180.309 105.841C179.683 106.27 179.032 106.654 178.354 106.995C177.676 107.336 176.979 107.63 176.262 107.877C176.31 105.064 176.164 102.192 176.324 99.3895L176.301 97.5269C176.229 96.2884 176.228 95.0424 176.428 93.8161Z" fill="#F8A596"/>
<path d="M128.613 95.1562C128.759 95.1806 128.995 95.2016 129.135 95.2656C129.491 95.4278 129.547 95.5522 129.721 95.879C129.72 96.3658 129.577 96.6153 129.33 97.0282C129.281 97.0186 129.23 97.0121 129.181 96.9996C128.74 96.8883 128.524 96.7062 128.304 96.316C128.25 95.811 128.365 95.5907 128.613 95.1562Z" fill="#FEFCFD"/>
<path d="M176.301 97.5272C177.165 97.2604 178.095 96.79 179 96.7515C179.169 96.8444 179.283 96.8395 179.322 97.0483C179.617 98.6452 177.651 101.019 177.039 102.48C176.775 103.11 176.627 103.816 176.46 104.479C176.389 102.8 176.506 101.054 176.324 99.3898L176.301 97.5272Z" fill="#D86A6D"/>
<path d="M153.008 115.264L153.279 115.316C153.365 115.581 153.37 115.801 153.35 116.076C153.114 119.32 151.891 122.936 149.362 125.105C147.855 126.399 145.938 127.04 143.952 126.838C141.525 126.592 139.783 125.138 138.307 123.335C136.625 121.116 135.897 118.392 135.38 115.702C141.417 117.155 147.053 117.171 153.008 115.264Z" fill="#FEFCFD"/>
<path d="M17.1376 194.015C16.8721 193.547 16.6576 193.01 16.4973 192.495C14.9892 187.648 17.4912 184.088 19.6336 179.978C23.7242 172.13 17.0103 168.437 14.9473 161.679C13.0622 155.502 15.901 152.46 18.6012 147.333C21.9983 140.882 17.5507 137.14 15.7232 131.273C13.7051 124.794 16.8811 120.847 19.7649 115.451C20.2618 114.529 20.7035 113.58 21.0899 112.606C21.4764 111.632 21.805 110.639 22.0758 109.627C23.1026 105.746 23.2487 101.875 23.7618 97.927C23.884 97.0439 24.025 96.164 24.1848 95.2872C24.3445 94.4102 24.5229 93.537 24.72 92.6676C24.917 91.7984 25.1325 90.9336 25.3664 90.0735C25.6003 89.2133 25.8525 88.3585 26.1229 87.509C26.3932 86.6598 26.6816 85.8166 26.988 84.9795C27.2944 84.1423 27.6184 83.3122 27.9602 82.489C28.302 81.6658 28.6612 80.8502 29.0378 80.0421C29.4145 79.2342 29.8081 78.4347 30.2188 77.6437C35.5999 67.4619 44.6236 58.8594 55.7881 55.4649C65.1267 52.6258 75.0314 53.3967 83.6725 58.0112C87.0554 59.8177 90.0627 62.1448 92.8002 64.8165C100.218 72.0572 103.481 79.7547 106.453 89.485C107.234 89.2057 107.977 89.0803 108.804 89.0587C108.922 89.1519 109.066 89.2975 109.205 89.3527C110.084 90.9309 110.925 92.5288 111.728 94.1465L112.176 94.5424C112.229 95.8624 112.332 97.1991 112.288 98.5189C112.239 101.141 112.381 104.03 112.872 106.61C113.097 107.863 113.306 109.119 113.5 110.377C112.939 110.542 112.377 110.7 111.788 110.715C110.95 110.737 108.692 110.089 108.213 110.288C108.656 112.009 108.789 113.781 109.151 115.516C108.562 118.633 107.458 121.53 104.731 123.376C102.746 124.721 100.502 125.158 98.1408 124.852C98.1102 123.571 98.1065 122.245 98.2221 120.97C98.2889 118.629 98.1224 116.29 97.9233 113.959C97.1672 106.181 96.4937 100.016 90.114 94.7851C88.0605 93.1015 85.8538 91.6121 83.7918 89.9401C78.2597 85.4547 73.8969 79.8784 72.5072 72.7632C70.7692 80.1259 65.0998 86.1001 58.8073 89.9885C55.3245 92.1411 51.465 93.673 47.5854 94.9502C44.6265 95.9241 40.454 96.5715 37.9636 98.3908C36.5498 99.4231 35.9273 100.798 35.5368 102.45C35.1666 104.016 35.161 105.712 35.0814 107.314C34.903 110.896 34.9593 114.578 34.5376 118.135L34.551 118.476C34.5124 119.405 34.483 120.31 34.5631 121.238C34.799 122.334 34.9375 123.444 35.0873 124.554C35.5342 130.102 37.0794 134.273 39.8301 139.053C43.772 145.018 49.3738 149.787 56.3043 151.871C56.3157 154.072 56.2466 156.268 55.9557 158.451C55.606 160.959 54.3296 168.374 52.4381 169.987C52.1914 170.049 51.9498 170.111 51.6995 170.155C49.364 171.127 47.0508 172.15 44.7599 173.223C43.3048 173.921 41.8887 174.746 40.4158 175.4C37.8919 176.381 35.5076 177.647 33.1369 178.948C31.6272 179.953 30.0316 180.832 28.5434 181.868C23.8609 185.13 20.1069 189.146 17.1376 194.015Z" fill="#86303B"/>
<path d="M35.0874 124.554C32.9132 124.859 31.1707 124.71 29.2865 123.442C26.4957 121.564 24.6697 118.069 24.0406 114.829C23.5943 112.532 23.8183 110.283 25.2154 108.322C26.3586 106.716 28.0619 105.766 29.9872 105.45C30.7272 105.329 31.8317 105.203 32.4499 105.746C33.3938 106.577 33.2174 109.138 33.3406 110.337C33.4422 110.902 33.519 111.465 33.5878 112.034C33.9602 114.062 34.1735 116.111 34.5377 118.135L34.551 118.477C34.5125 119.406 34.483 120.31 34.5632 121.238C34.7991 122.334 34.9375 123.444 35.0874 124.554Z" fill="#FFBFAC"/>
<path d="M28.1607 113.168C28.092 113.172 28.0234 113.179 27.9546 113.181C27.4941 113.2 27.2717 113.2 26.9311 112.901C26.8981 112.669 26.8556 112.565 26.9345 112.337C27.2583 111.399 28.3206 110.697 29.1756 110.318C28.7511 111.248 28.2907 112.142 28.1607 113.168Z" fill="#F8A596"/>
<path d="M29.1756 110.318C29.2206 110.309 29.266 110.3 29.3113 110.292C29.3866 110.278 29.4625 110.266 29.5378 110.252C30.7695 110.022 32.8241 110.501 33.3404 110.337C33.4421 110.902 33.5188 111.465 33.5876 112.035C33.9601 114.062 34.1733 116.112 34.5375 118.135L34.5508 118.477C34.5123 119.406 34.4828 120.311 34.563 121.238C33.0906 121.13 31.6324 120.598 30.5242 119.61C28.6469 117.936 28.2665 115.54 28.1606 113.168C28.2907 112.142 28.7511 111.249 29.1756 110.318Z" fill="#EE8D7C"/>
<path d="M34.5506 118.477C34.4167 118.448 34.2845 118.412 34.1538 118.371C34.0232 118.33 33.8946 118.283 33.7681 118.231C33.6416 118.178 33.5177 118.12 33.3963 118.057C33.275 117.993 33.1568 117.924 33.0414 117.85C32.9262 117.776 32.8146 117.697 32.7064 117.613C32.5982 117.529 32.4939 117.44 32.3934 117.347C32.2932 117.254 32.1972 117.156 32.1054 117.055C32.0138 116.953 31.9269 116.847 31.8446 116.738C31.1513 115.824 30.7503 114.503 30.9618 113.36C31.046 112.907 31.2974 112.502 31.6837 112.247C32.3113 111.833 32.8803 111.909 33.5874 112.035C33.9598 114.062 34.1731 116.112 34.5373 118.135L34.5506 118.477Z" fill="#F8A596"/>
<path d="M108.804 89.0591C108.922 89.1523 109.067 89.2978 109.205 89.353C110.084 90.9312 110.925 92.5292 111.728 94.1468L112.176 94.5427C112.229 95.8628 112.332 97.1995 112.289 98.5192C112.239 101.141 112.381 104.031 112.872 106.61C113.097 107.863 113.306 109.119 113.5 110.377C112.939 110.542 112.377 110.7 111.788 110.716C110.95 110.737 108.692 110.089 108.214 110.288C108.656 112.009 108.789 113.781 109.151 115.517C108.562 118.634 107.458 121.531 104.731 123.377C102.746 124.721 100.502 125.158 98.1408 124.852C98.1103 123.572 98.1066 122.246 98.2221 120.97C98.289 118.629 98.1224 116.29 97.9233 113.959C98.9613 113.348 99.5402 112.654 100.191 111.671C102.013 108.104 101.809 107.654 102.339 103.905C102.243 103.202 101.942 102.476 101.802 101.769C101.318 99.3229 101.274 96.6645 102.101 94.2847C102.886 92.0259 104.311 90.5128 106.453 89.4853C107.234 89.2061 107.977 89.0806 108.804 89.0591Z" fill="#F8A596"/>
<path d="M106.898 98.5035C106.73 97.6887 106.751 96.7669 106.89 95.9462C107.027 95.1399 107.346 94.1948 108.064 93.7227C109.076 93.0578 110.654 93.881 111.728 94.1467L112.176 94.5426C112.229 95.8626 112.332 97.1993 112.288 98.5191C112.265 98.514 112.241 98.5077 112.217 98.5035C110.949 98.2764 110.43 96.9065 109.422 96.3073C109.181 96.1637 108.956 96.1421 108.688 96.2469C107.807 96.5913 107.308 97.7244 106.898 98.5035Z" fill="#EE8D7C"/>
<path d="M106.898 98.5032C107.308 97.7241 107.808 96.591 108.689 96.2467C108.956 96.1419 109.181 96.1634 109.422 96.307C110.43 96.9062 110.949 98.2761 112.218 98.5032C112.241 98.5075 112.265 98.5137 112.288 98.5188C112.239 101.141 112.381 104.03 112.872 106.61C109.921 104.684 110.833 102.75 109.379 100.213C108.46 99.6559 108.139 101.071 107.279 101.087C106.805 100.533 106.917 99.2129 106.898 98.5032Z" fill="#D86A6D"/>
<path d="M100.191 111.67C101.101 111.772 101.812 112.2 102.39 112.917C103.074 113.765 103.147 115.161 103.004 116.193C102.746 118.057 101.485 119.818 99.961 120.897C99.4062 121.29 99.0287 121.511 98.3459 121.39L98.2221 120.97C98.289 118.629 98.1224 116.29 97.9233 113.959C98.9613 113.348 99.5402 112.654 100.191 111.67Z" fill="#D86A6D"/>
<path d="M39.8298 139.053C43.7717 145.018 49.3735 149.787 56.304 151.872C56.3154 154.072 56.2463 156.268 55.9554 158.451C55.6057 160.959 54.3293 168.374 52.4378 169.988C52.1911 170.05 51.9495 170.112 51.6992 170.155C49.3637 171.128 47.0505 172.15 44.7596 173.223C43.3045 173.922 41.8884 174.746 40.4155 175.4C37.8916 176.381 35.5073 177.647 33.1366 178.948C33.1666 178.428 33.5238 177.877 33.7127 177.385C34.3677 175.679 34.8092 174.019 34.6911 172.177C34.4023 167.667 30.6892 164.331 31.5821 159.582C32.5713 154.319 38.3713 152.45 39.8672 147.503C40.4846 145.46 40.2311 143.406 39.9635 141.332C39.8661 140.576 39.6928 139.809 39.8298 139.053Z" fill="#611927"/>
<path d="M40.4157 175.4C41.8887 174.746 43.3047 173.922 44.7598 173.223C47.0507 172.15 49.3639 171.128 51.6994 170.155C54.8574 173.537 58.1983 176.735 61.5362 179.937C63.1442 181.479 64.8479 183.376 66.6924 184.623L67.111 184.813C69.7711 187.29 72.6122 189.832 75.7365 191.715C75.6343 192.16 75.4975 192.532 75.3066 192.946C72.7618 198.945 70.3885 209.281 69.3177 215.725C67.7414 223.046 66.7174 230.521 65.859 237.957C64.7209 247.473 63.9686 257.019 63.6021 266.595C63.362 272.568 63.5033 278.573 63.2107 284.534C53.5937 284.429 42.9903 283.143 34.2226 278.976C35.0374 272.062 31.2099 257.744 29.3901 250.755C28.5243 247.266 26.7623 239.139 25.3305 236.275C24.4518 236.141 23.5964 235.89 22.7386 235.662C18.9418 234.664 15.4018 233.418 11.9009 231.613C10.2205 230.493 8.70691 229.339 7.47021 227.727C7.52689 226.994 7.59282 226.261 7.668 225.529C7.74319 224.798 7.8276 224.067 7.92124 223.337C8.01491 222.607 8.11777 221.879 8.22982 221.152C8.34188 220.425 8.46311 219.699 8.59351 218.975C8.7239 218.251 8.86342 217.529 9.01209 216.808C9.16073 216.088 9.31846 215.369 9.48526 214.653C9.65207 213.936 9.8279 213.222 10.0128 212.51C10.1976 211.798 10.3914 211.088 10.5942 210.381C10.797 209.674 11.0087 208.969 11.2293 208.267C11.4499 207.566 11.6793 206.867 11.9176 206.171C12.1559 205.475 12.4029 204.782 12.6586 204.092C12.9144 203.402 13.1789 202.716 13.452 202.033C13.7251 201.35 14.0068 200.67 14.2971 199.994C14.5874 199.318 14.8862 198.646 15.1934 197.977C15.5007 197.309 15.8164 196.644 16.1404 195.984C16.4645 195.324 16.7969 194.667 17.1376 194.015C20.1068 189.146 23.8608 185.13 28.5433 181.868C30.0315 180.832 31.6271 179.953 33.1368 178.948C35.5075 177.647 37.8918 176.381 40.4157 175.4Z" fill="#E43B81"/>
<path d="M22.7387 235.662C21.716 230.821 20.7385 225.971 19.8062 221.112C19.4299 219.199 18.7401 217.103 18.6226 215.174C18.6515 215.371 18.64 215.252 18.6384 215.532L18.7685 215.441C19.2514 217.719 20.4348 220.51 21.1614 222.827C22.5646 227.302 23.7944 231.843 25.3306 236.275C24.452 236.141 23.5966 235.89 22.7387 235.662Z" fill="#C31C6C"/>
<path d="M40.4155 175.4C41.8885 174.746 43.3045 173.922 44.7596 173.223C47.0505 172.15 49.3637 171.128 51.6992 170.155C54.8572 173.537 58.1981 176.735 61.536 179.937C63.144 181.479 64.8477 183.376 66.6922 184.623L67.1108 184.813C69.7709 187.29 72.612 189.832 75.7363 191.715C75.6341 192.16 75.4973 192.532 75.3064 192.946C72.7616 198.945 70.3883 209.281 69.3175 215.725C67.0123 214.509 64.8327 212.403 62.8953 210.676C52.0489 201.006 45.0153 189.093 40.4155 175.4Z" fill="#FEFCFD"/>
<path d="M65.6328 204.972C65.9763 204.999 66.3564 205.038 66.6436 205.253C66.8897 205.437 67.0307 205.705 67.012 206.013C66.9848 206.464 66.6623 206.748 66.3601 207.036C66.1559 207.014 65.8857 206.99 65.7033 206.895C65.4122 206.742 65.2335 206.443 65.2006 206.121C65.1545 205.673 65.3907 205.321 65.6328 204.972Z" fill="#158DCB"/>
<path d="M65.6575 194.912C65.9639 194.933 66.4357 194.966 66.7155 195.105C67.0732 195.283 67.1007 195.385 67.2233 195.736C67.1531 196.197 66.937 196.466 66.6711 196.832C66.2695 196.939 66.0933 196.922 65.6983 196.796C65.4425 196.54 65.3114 196.436 65.2698 196.054C65.2191 195.591 65.415 195.282 65.6575 194.912Z" fill="#158DCB"/>
<path d="M66.6925 184.623L67.1111 184.813C69.7712 187.29 72.6123 189.832 75.7366 191.715C75.6344 192.16 75.4976 192.532 75.3067 192.946C72.2 190.661 69.5557 188.722 66.7446 186.022C63.0913 189.178 58.8059 191.586 54.5167 193.754C52.2905 191.552 50.5086 189.035 48.8994 186.361C50.8696 188.345 52.8656 190.303 54.8875 192.234C58.7852 190.095 63.3011 187.479 66.6925 184.623Z" fill="#3798A2"/>
<path d="M34.5375 118.135C34.9592 114.578 34.9029 110.896 35.0813 107.314C35.1609 105.712 35.1665 104.016 35.5367 102.45C35.9272 100.798 36.5497 99.4231 37.9634 98.3908C40.4539 96.5715 44.6264 95.9241 47.5853 94.9502C51.4649 93.6729 55.3244 92.1411 58.8072 89.9884C65.0997 86.1001 70.7691 80.1259 72.5071 72.7632C73.8968 79.8784 78.2596 85.4547 83.7917 89.94C85.8537 91.6121 88.0604 93.1014 90.1139 94.7851C96.4936 100.016 97.1671 106.181 97.9232 113.959C98.1223 116.29 98.2888 118.629 98.222 120.97C98.1064 122.245 98.1101 123.571 98.1407 124.852C100.502 125.158 102.746 124.721 104.731 123.376C107.458 121.53 108.562 118.633 109.151 115.516C106.123 131.548 106.06 151.871 119.127 158.42C115.635 160.535 111.658 162.055 108.364 164.487C105.662 165.776 102.987 167.218 100.402 168.727C98.836 169.641 97.2962 170.655 95.7018 171.513C94.0532 172.614 92.3891 173.894 90.6497 174.833C87.9041 172.797 84.4351 171.626 81.3131 170.276C77.4708 173.829 73.9382 177.824 70.2803 181.577C69.2311 182.654 68.2271 183.806 67.111 184.813L66.6924 184.623C64.8479 183.376 63.1442 181.479 61.5361 179.937C58.1983 176.734 54.8574 173.536 51.6994 170.155C51.9497 170.111 52.1913 170.049 52.438 169.987C54.3295 168.374 55.6059 160.959 55.9556 158.451C56.2465 156.268 56.3156 154.072 56.3042 151.871C49.3737 149.786 43.7719 145.018 39.83 139.053C37.0793 134.273 35.5341 130.102 35.0872 124.554C34.9374 123.444 34.7989 122.334 34.563 121.238C34.4829 120.31 34.5123 119.405 34.5508 118.476L34.5375 118.135Z" fill="#FFBFAC"/>
<path d="M68.0571 117.314C68.3377 117.521 68.3839 117.57 68.5283 117.885C68.498 119.216 66.99 120.927 66.4941 122.222C66.4714 122.28 66.4508 122.339 66.4292 122.398C67.0373 122.663 67.6864 122.749 68.2253 123.156C68.3907 123.551 68.3131 123.579 68.1579 123.987C67.6464 123.883 67.0987 123.777 66.6147 123.582C66.1766 123.404 65.8325 123.038 65.713 122.576C65.3695 121.25 67.3788 118.519 68.0571 117.314Z" fill="#D86A6D"/>
<path d="M62.0669 137.984C62.9879 137.274 63.9757 136.803 65.1071 136.53C67.2481 136.014 69.8165 136.313 71.6899 137.471C69.8295 138.844 67.7788 139.603 65.4248 139.265C64.2005 139.089 63.1173 138.615 62.0669 137.984Z" fill="#E43B81"/>
<path d="M81.3784 102.157C82.7833 102.101 84.1572 102.159 85.5296 102.49C87.0036 102.847 89.2755 103.644 90.0486 105.024C90.2743 105.427 90.2953 105.769 90.1619 106.211C89.96 106.448 89.7997 106.586 89.4834 106.646C88.3123 106.866 87.3865 106.151 86.463 105.558C82.6859 103.621 79.1011 105.885 77.4617 104.933C77.0952 104.719 76.9015 104.36 76.8508 103.945C76.8038 103.563 76.9239 103.299 77.1872 103.029C78.0388 102.157 80.2153 102.227 81.3784 102.157Z" fill="#86303B"/>
<path d="M49.6909 110.757C50.2069 110.725 50.7478 110.72 51.2466 110.877C52.0599 111.133 52.7402 111.763 53.1248 112.515C53.6252 113.495 53.6946 114.715 53.342 115.753C52.956 116.889 52.2378 117.497 51.1882 118.005C50.7246 118.088 50.2689 118.11 49.8118 117.968C48.9515 117.702 48.2998 117.045 47.9138 116.246C47.3913 115.164 47.2896 113.835 47.7207 112.707C48.1092 111.691 48.7235 111.195 49.6909 110.757Z" fill="#2A0631"/>
<path d="M49.2259 111.981C49.713 112.136 50.0798 112.301 50.3205 112.789C50.5085 113.171 50.5068 113.558 50.359 113.949C50.1319 114.551 49.7674 114.777 49.2086 115.049C48.9487 114.93 48.6323 114.758 48.4474 114.534C48.1696 114.198 48.0271 113.791 48.1061 113.354C48.2276 112.685 48.6836 112.327 49.2259 111.981Z" fill="#FEFCFD"/>
<path d="M49.1359 102.285C50.6901 102.122 52.6921 102.005 54.1874 102.525C54.764 102.725 55.4289 103.111 55.6535 103.716C55.7716 104.035 55.8096 104.328 55.6263 104.627C54.7518 106.056 51.956 105 50.6295 104.885C49.7085 104.806 48.8408 104.884 47.9453 105.104L47.7609 105.151C46.7595 105.551 46.0065 106.163 45.0931 106.707C44.5823 107.011 43.7697 107.356 43.1733 107.093C42.8771 106.962 42.6797 106.729 42.6095 106.413C42.5078 105.958 42.7089 105.455 42.9623 105.086C44.1991 103.29 47.1135 102.604 49.1359 102.285Z" fill="#86303B"/>
<path d="M80.2817 111.798C80.9529 111.204 81.6757 110.737 82.6077 110.768C83.3698 110.793 84.0455 111.165 84.5536 111.722C85.2891 112.527 85.683 113.67 85.6289 114.758C85.5796 115.742 85.2146 116.679 84.4457 117.322C83.8719 117.801 82.9708 118.202 82.2095 118.077C81.2387 117.918 80.444 117.172 79.9181 116.383C79.6958 115.953 79.5378 115.53 79.4551 115.049C79.2407 113.8 79.5344 112.798 80.2817 111.798Z" fill="#2A0631"/>
<path d="M80.2817 111.798L80.9252 112.12C81.3222 112.112 81.7785 112.082 82.1129 112.34C82.3879 112.552 82.4757 112.867 82.4854 113.199C82.4998 113.691 82.3149 114.236 82.1792 114.704C82.1574 115.162 82.1189 115.403 81.9096 115.811C81.3038 116.32 80.5936 116.092 79.9181 116.383C79.6958 115.953 79.5378 115.53 79.4551 115.05C79.2407 113.8 79.5344 112.798 80.2817 111.798Z" fill="#FEFCFD"/>
<path d="M80.2817 111.798L80.9252 112.12C80.4644 112.534 80.113 112.852 80.0555 113.508C80.0147 113.973 80.1073 114.628 80.4874 114.943C80.7306 115.145 81.1365 115.256 81.4469 115.159C81.7233 115.073 81.9631 114.89 82.1792 114.704C82.1574 115.162 82.1189 115.403 81.9096 115.811C81.3038 116.32 80.5936 116.092 79.9181 116.383C79.6958 115.953 79.5378 115.53 79.4551 115.05C79.2407 113.8 79.5344 112.798 80.2817 111.798Z" fill="#4F114F"/>
<path d="M62.0667 137.984C61.5711 137.616 61.0996 137.218 60.6833 136.761C59.3876 135.339 58.9945 133.678 59.0871 131.808C61.4343 133.829 64.9746 134.325 67.9692 134.087C70.0808 133.919 72.3793 133.265 74.0317 131.895C73.968 134.121 73.3232 135.9 71.6897 137.471C69.8163 136.313 67.2479 136.015 65.1069 136.531C63.9755 136.803 62.9877 137.274 62.0667 137.984Z" fill="#86303B"/>
<path d="M59.0873 131.808C58.7692 130.982 58.1558 129.737 58.6101 128.879C58.7511 128.613 58.9409 128.491 59.1802 128.328C60.2813 128.273 61.4008 128.513 62.5044 128.565C64.3917 128.654 66.2996 128.604 68.1883 128.575C69.9093 128.549 71.8008 127.969 73.4782 128.11C73.6901 128.128 73.8305 128.175 73.9843 128.327C74.4746 128.811 74.5258 129.457 74.4901 130.113C74.4556 130.744 74.2709 131.315 74.0319 131.895C72.3794 133.265 70.0809 133.92 67.9694 134.087C64.9748 134.325 61.4345 133.829 59.0873 131.808Z" fill="#FEFCFD"/>
<path d="M46.4285 121.679C47.908 121.558 49.4633 121.819 50.7225 122.636C51.6743 123.253 52.4041 124.204 52.6358 125.326C52.8578 126.4 52.5817 127.485 51.9371 128.364C50.887 129.796 49.3237 130.275 47.6568 130.552C46.1334 130.601 44.6401 130.423 43.3328 129.575C42.3062 128.908 41.5152 127.869 41.2878 126.653C41.1074 125.69 41.3147 124.728 41.8888 123.933C42.9415 122.475 44.735 121.935 46.4285 121.679Z" fill="#F8A596"/>
<path d="M85.6877 121.393C87.0627 121.319 88.3714 121.488 89.6033 122.153C90.6622 122.724 91.5809 123.661 91.8828 124.853C92.1521 125.916 91.8797 127.046 91.3011 127.96C90.3405 129.477 88.8588 130.055 87.195 130.447C85.7424 130.526 84.3754 130.382 83.082 129.656C81.9395 129.015 80.9418 127.953 80.6229 126.656C80.3848 125.688 80.5773 124.693 81.1228 123.862C82.1537 122.293 83.946 121.734 85.6877 121.393Z" fill="#F8A596"/>
<path d="M56.3041 151.872C62.9716 154.047 70.5671 154.376 77.2846 152.151C77.3857 157.508 77.6154 164.606 79.9836 169.477C80.4177 169.737 80.9068 169.979 81.3129 170.276C77.4707 173.829 73.938 177.824 70.2802 181.577C69.2309 182.654 68.2269 183.806 67.1108 184.813L66.6923 184.623C64.8478 183.376 63.144 181.479 61.536 179.937C58.1982 176.735 54.8572 173.537 51.6992 170.155C51.9496 170.112 52.1911 170.05 52.4378 169.988C54.3293 168.374 55.6057 160.959 55.9555 158.451C56.2463 156.268 56.3154 154.072 56.3041 151.872Z" fill="#F8A596"/>
<path d="M56.3042 151.872C62.9716 154.047 70.5671 154.376 77.2847 152.151C77.3858 157.508 77.6155 164.606 79.9837 169.477C71.835 166.24 62.8603 164.194 55.9556 158.451C56.2464 156.268 56.3155 154.072 56.3042 151.872Z" fill="#D86A6D"/>
<path d="M111.44 119.512C113.386 122.527 114.947 124.292 115.264 127.866C115.57 131.326 113.977 133.133 113.14 136.504C112.59 138.717 111.883 139.894 111.724 142.168C111.584 144.161 111.606 145.343 112.148 147.266C112.821 149.649 113.957 150.685 115.264 152.788C116.671 155.054 119.127 158.42 119.127 158.42C119.127 158.42 111.658 162.055 108.364 164.487C105.662 165.776 102.987 167.218 100.401 168.727C98.8359 169.642 97.2961 170.656 95.7017 171.513C94.0531 172.614 92.389 173.895 90.6496 174.833C87.9039 172.797 84.435 171.626 81.3129 170.276C80.9068 169.979 80.4177 169.737 79.9836 169.477C77.6154 164.606 77.3858 157.508 77.2847 152.151C78.5945 151.892 79.9442 151.295 81.141 150.713C86.0747 148.311 89.6015 144.751 92.7003 140.294C93.146 139.22 94.0619 138.201 94.6065 137.142C96.4816 133.496 97.9517 128.965 98.1406 124.852C100.502 125.158 102.745 124.721 104.731 123.377C107.457 121.53 108.562 118.634 109.151 115.517C109.629 116.991 110.607 118.22 111.44 119.512Z" fill="#86303B"/>
<path d="M92.7003 140.294C93.2409 141.313 92.9934 143.559 93.8521 145.243C95.995 149.445 101.629 150.904 99.7209 156.891C99.0973 158.846 97.7659 160.484 96.7495 162.242C95.1525 165.003 94.2579 168.512 95.7017 171.513C94.0531 172.614 92.389 173.895 90.6496 174.833C87.9039 172.797 84.435 171.626 81.3129 170.276C80.9068 169.979 80.4177 169.737 79.9836 169.477C77.6154 164.606 77.3858 157.508 77.2847 152.151C78.5945 151.892 79.9442 151.295 81.141 150.712C86.0747 148.311 89.6015 144.751 92.7003 140.294Z" fill="#611927"/>
<path d="M126.969 154.378C127.691 153.985 128.564 153.442 129.391 153.348L129.124 155.387L128.051 155.178L126.969 154.378Z" fill="#4F114F"/>
<path d="M214.927 151.772C214.981 151.795 215.034 151.82 215.089 151.842C223.31 155.186 229.959 155.039 238.052 151.469L238.186 165.204L238.35 171.819C239.598 172.26 240.874 172.697 242.041 173.329C243.498 173.892 245.176 174.391 246.517 175.191C249.294 176.409 252.058 177.655 254.809 178.928C256.21 179.578 257.754 180.196 259.061 181.012C260.972 182.11 262.897 183.164 264.678 184.472C272.31 190.077 276.767 198.096 279.193 207.08C285.458 230.283 282.534 265.838 278.356 289.773L278.259 289.836L278.249 290H263.1H224.965H206.452L206.438 289.864L218.701 289.858C220.724 289.858 222.945 290.045 224.939 289.745C225.067 284.727 225.408 279.699 225.559 274.676C226.289 274.686 227.008 274.643 227.736 274.596L225.57 274.578C225.632 254.328 225.313 234.124 220.619 214.311C219.425 209.27 217.784 204.314 216.009 199.45C215.329 197.586 213.943 195.121 213.593 193.247C213.578 193.168 213.566 193.088 213.552 193.008C212.386 191.463 211.611 189.482 210.609 187.815C209.16 185.404 207.383 183.24 205.609 181.067C205.179 178.958 204.988 176.924 205.198 174.777C206.882 174.336 208.573 173.621 210.225 173.051C211.023 172.663 211.868 172.388 212.703 172.092C213.105 166.855 213.784 161.615 214.358 156.393C214.465 154.863 214.763 153.303 214.927 151.772Z" fill="#76C6F0"/>
<path d="M263.115 289.87C268.161 289.858 273.213 289.79 278.259 289.836L278.249 290H263.1L263.115 289.87Z" fill="#9ECAD0"/>
<path d="M275.405 238.284C275.771 238.303 276.156 238.313 276.456 238.564C276.737 238.799 276.846 239.074 276.83 239.436C276.812 239.86 276.515 240.173 276.253 240.473C275.883 240.465 275.515 240.459 275.213 240.204C275.016 240.038 274.898 239.848 274.867 239.597C274.795 239.01 275.049 238.7 275.405 238.284Z" fill="#FEFCFD"/>
<path d="M226.982 201.872C227.355 201.92 227.76 201.947 228.043 202.234C228.282 202.478 228.378 202.76 228.34 203.099C228.287 203.559 227.97 203.857 227.659 204.163C227.319 204.145 226.965 204.112 226.676 203.914C226.396 203.722 226.246 203.441 226.249 203.101C226.253 202.526 226.593 202.228 226.982 201.872Z" fill="#FEFCFD"/>
<path d="M232.192 256.252C232.582 256.279 232.996 256.29 233.292 256.587C233.547 256.843 233.653 257.127 233.61 257.489C233.555 257.948 233.224 258.245 232.904 258.539C232.536 258.52 232.182 258.489 231.883 258.237C231.619 258.015 231.519 257.707 231.536 257.369C231.559 256.889 231.879 256.578 232.192 256.252Z" fill="#FEFCFD"/>
<path d="M243.975 247.179C244.325 247.228 244.687 247.295 244.955 247.55C245.124 247.712 245.234 247.924 245.253 248.154C245.304 248.786 244.992 249.128 244.593 249.563C244.178 249.536 243.745 249.517 243.452 249.171C243.292 248.982 243.205 248.764 243.21 248.52C243.225 247.878 243.529 247.583 243.975 247.179Z" fill="#FEFCFD"/>
<path d="M249.636 261.789C249.972 261.872 250.328 261.957 250.569 262.233C250.805 262.502 250.893 262.816 250.838 263.169C250.765 263.629 250.448 263.919 250.123 264.218C249.708 264.133 249.247 264.071 248.98 263.7C248.77 263.408 248.696 263.106 248.784 262.753C248.899 262.287 249.264 262.044 249.636 261.789Z" fill="#FEFCFD"/>
<path d="M236.442 207.824C236.868 207.843 237.266 207.862 237.588 208.182C237.834 208.427 237.935 208.72 237.906 209.064C237.865 209.551 237.545 209.847 237.214 210.165C236.851 210.127 236.488 210.079 236.196 209.829C235.925 209.598 235.788 209.301 235.803 208.945C235.822 208.473 236.141 208.149 236.442 207.824Z" fill="#FEFCFD"/>
<path d="M229.068 237.711C229.469 237.791 229.949 237.869 230.199 238.23C230.357 238.458 230.402 238.641 230.385 238.909C230.344 239.54 229.975 239.845 229.524 240.225C229.141 240.118 228.844 240.009 228.561 239.713C228.399 239.544 228.302 239.263 228.305 239.037C228.311 238.406 228.639 238.115 229.068 237.711Z" fill="#FEFCFD"/>
<path d="M277.507 258.103C277.941 258.127 278.41 258.108 278.722 258.471C278.975 258.765 279.023 259.027 278.991 259.403C278.953 259.852 278.596 260.193 278.292 260.483C277.886 260.438 277.575 260.385 277.243 260.123C276.975 259.912 276.848 259.546 276.869 259.214C276.898 258.75 277.211 258.427 277.507 258.103Z" fill="#FEFCFD"/>
<path d="M232.94 223.807C233.364 223.879 233.69 223.929 234.01 224.255C234.248 224.497 234.357 224.912 234.285 225.242C234.18 225.72 233.898 225.953 233.536 226.251C233.124 226.195 232.69 226.14 232.396 225.808C232.227 225.618 232.133 225.41 232.137 225.159C232.146 224.507 232.493 224.221 232.94 223.807Z" fill="#FEFCFD"/>
<path d="M255.895 186.472C256.231 186.473 256.59 186.447 256.892 186.622C257.179 186.788 257.35 187.07 257.389 187.39C257.464 188.001 257.15 188.383 256.781 188.821C256.368 188.825 255.938 188.834 255.615 188.523C255.369 188.288 255.297 188.044 255.282 187.718C255.256 187.176 255.549 186.841 255.895 186.472Z" fill="#FEFCFD"/>
<path d="M251.775 216.92C252.205 216.911 252.673 216.868 253.025 217.167C253.316 217.413 253.441 217.67 253.44 218.052C253.44 218.487 253.111 218.83 252.849 219.142C252.499 219.163 252.109 219.191 251.792 219.007C251.475 218.824 251.29 218.639 251.23 218.265C251.138 217.687 251.437 217.335 251.775 216.92Z" fill="#FEFCFD"/>
<path d="M249.367 231.755C249.773 231.74 250.265 231.709 250.584 232.01C250.824 232.236 250.903 232.454 250.921 232.772C250.953 233.31 250.652 233.677 250.327 234.064C249.999 234.067 249.595 234.104 249.306 233.917C249.01 233.724 248.811 233.495 248.773 233.13C248.714 232.547 249.009 232.165 249.367 231.755Z" fill="#FEFCFD"/>
<path d="M274.734 277.671C275.217 277.66 275.72 277.626 276.098 277.996C276.273 278.168 276.375 278.357 276.396 278.597C276.445 279.179 276.175 279.492 275.811 279.891C275.375 279.899 274.931 279.923 274.569 279.634C274.272 279.398 274.147 279.132 274.138 278.754C274.128 278.306 274.459 277.982 274.734 277.671Z" fill="#FEFCFD"/>
<path d="M257.529 202.46C257.978 202.454 258.435 202.43 258.788 202.762C259.027 202.988 259.104 203.21 259.114 203.528C259.132 204.055 258.8 204.427 258.474 204.796C258.143 204.78 257.728 204.788 257.441 204.599C257.163 204.415 256.956 204.188 256.919 203.849C256.851 203.234 257.153 202.894 257.529 202.46Z" fill="#FEFCFD"/>
<path d="M271.074 219.746C271.522 219.762 271.979 219.772 272.316 220.121C272.563 220.377 272.642 220.682 272.607 221.029C272.562 221.471 272.236 221.767 271.943 222.064C271.919 222.063 271.896 222.062 271.873 222.061C271.419 222.052 270.948 222.076 270.599 221.73C270.348 221.482 270.268 221.192 270.317 220.846C270.385 220.369 270.744 220.059 271.074 219.746Z" fill="#FEFCFD"/>
<path d="M269.863 242.524C270.249 242.538 270.628 242.549 270.942 242.805C271.255 243.06 271.356 243.354 271.344 243.748C271.327 244.328 270.929 244.734 270.518 245.086C270.189 245.019 269.803 244.962 269.541 244.735C269.253 244.485 269.074 244.239 269.073 243.844C269.072 243.23 269.446 242.906 269.863 242.524Z" fill="#FEFCFD"/>
<path d="M274.175 197.09C274.555 197.147 274.872 197.216 275.163 197.491C275.437 197.75 275.562 198.065 275.534 198.442C275.49 199.046 275.156 199.35 274.728 199.718C274.342 199.684 273.925 199.6 273.621 199.342C273.331 199.095 273.203 198.775 273.245 198.396C273.315 197.76 273.709 197.46 274.175 197.09Z" fill="#FEFCFD"/>
<path d="M269.154 209.647C269.325 213.743 268.715 217.898 268.436 221.983C267.753 231.98 266.391 241.9 265.361 251.862C264.845 256.86 264.551 261.893 264.2 266.906C263.947 270.513 263.66 274.126 263.483 277.738C263.399 279.437 263.297 288.876 262.987 289.688L262.847 289.802C262.2 287.658 262.038 284.908 261.976 282.663C261.36 280.746 260.855 278.795 260.233 276.879C259.587 274.894 258.674 272.785 258.332 270.73C259.285 268.536 260.55 259.23 260.966 256.293C261.175 254.822 261.23 252.471 261.939 251.217C262.171 248.816 262.802 246.405 263.281 244.042C264.126 239.861 264.945 235.674 265.738 231.483C266.591 226.813 267.363 222.13 268.054 217.433C268.432 214.846 268.677 212.215 269.154 209.647Z" fill="#158DCB"/>
<path d="M261.939 251.217C262.141 258.728 261.959 266.259 261.973 273.774C261.977 275.776 262.306 280.977 261.976 282.664C261.36 280.746 260.855 278.795 260.233 276.879C259.587 274.894 258.674 272.785 258.332 270.73C259.285 268.536 260.55 259.231 260.966 256.293C261.175 254.822 261.23 252.471 261.939 251.217Z" fill="#FCD88D"/>
<path d="M227.735 274.597C234.863 274.536 242.275 273.892 249.3 272.687C251.135 272.363 252.959 271.988 254.773 271.56C255.898 271.289 257.183 270.771 258.332 270.73C258.674 272.786 259.587 274.894 260.232 276.879C260.855 278.795 261.36 280.747 261.976 282.664C262.038 284.908 262.2 287.658 262.847 289.802L263.115 289.87L263.1 290H224.965H206.452L206.438 289.864L218.701 289.859C220.724 289.859 222.945 290.045 224.939 289.745C225.067 284.727 225.407 279.699 225.559 274.676C226.288 274.686 227.008 274.643 227.735 274.597Z" fill="#462F6E"/>
<path d="M224.939 289.745C230.195 289.595 235.481 289.737 240.74 289.742C246.797 289.745 252.865 289.635 258.92 289.748C260.228 289.737 261.543 289.694 262.847 289.802L263.115 289.87L263.1 290H224.965H206.452L206.438 289.864L218.701 289.858C220.724 289.858 222.945 290.045 224.939 289.745Z" fill="#9ECAD0"/>
<path d="M262.847 289.802L263.115 289.87L263.1 290H224.965C227.534 289.569 231.196 289.844 233.873 289.855C239.402 289.886 244.932 289.882 250.462 289.844C253.251 289.83 256.146 289.983 258.921 289.748C260.228 289.736 261.543 289.694 262.847 289.802Z" fill="#CEDBD3"/>
<path d="M214.927 151.772C214.981 151.795 215.034 151.82 215.089 151.842C223.31 155.186 229.959 155.039 238.052 151.469L238.186 165.204L238.35 171.819C239.598 172.26 240.874 172.697 242.041 173.329C243.498 173.892 245.176 174.391 246.517 175.191C246.501 175.258 246.483 175.324 246.468 175.39C246.172 176.659 246.456 178.203 246.25 179.539C245.383 185.159 242.356 190.171 237.571 193.297C237.271 193.492 236.966 193.68 236.657 193.86C236.347 194.04 236.034 194.212 235.716 194.377C235.398 194.541 235.077 194.698 234.751 194.847C234.426 194.996 234.097 195.137 233.765 195.27C233.432 195.403 233.097 195.527 232.758 195.644C232.42 195.76 232.079 195.868 231.735 195.968C231.391 196.068 231.045 196.159 230.697 196.242C230.349 196.325 229.999 196.399 229.647 196.465C229.295 196.531 228.942 196.588 228.587 196.636C228.232 196.685 227.877 196.725 227.52 196.756C227.164 196.787 226.806 196.809 226.449 196.823C226.091 196.836 225.733 196.841 225.376 196.837C225.018 196.834 224.66 196.821 224.302 196.8C223.945 196.778 223.589 196.748 223.233 196.709C222.877 196.671 222.522 196.623 222.169 196.567C221.815 196.511 221.463 196.446 221.113 196.373C220.773 196.302 220.435 196.221 220.099 196.132C219.763 196.042 219.43 195.944 219.1 195.837C218.769 195.73 218.441 195.615 218.117 195.49C217.792 195.366 217.472 195.233 217.154 195.092C216.837 194.951 216.523 194.801 216.214 194.643C215.904 194.486 215.599 194.32 215.298 194.145C214.997 193.972 214.701 193.79 214.41 193.6C214.119 193.41 213.833 193.213 213.552 193.008C212.386 191.463 211.611 189.482 210.609 187.815C209.16 185.404 207.383 183.24 205.609 181.067C205.179 178.958 204.988 176.924 205.198 174.777C206.882 174.336 208.573 173.621 210.225 173.051C211.023 172.663 211.868 172.388 212.703 172.092C213.105 166.855 213.784 161.615 214.358 156.393C214.465 154.863 214.763 153.303 214.927 151.772Z" fill="#EE8D7C"/>
<path d="M214.927 151.772C214.981 151.795 215.034 151.82 215.089 151.842C223.31 155.186 229.959 155.039 238.052 151.469L238.186 165.204C231.411 165.697 224.966 164.135 219.307 160.288C217.578 159.113 215.987 157.701 214.358 156.393C214.465 154.863 214.763 153.303 214.927 151.772Z" fill="#B75157"/>
<path d="M205.198 174.777C206.882 174.336 208.573 173.621 210.225 173.052C208.815 176.127 209.016 179.561 210.167 182.692C211.624 186.655 214.864 189.655 218.647 191.373C218.9 191.489 219.155 191.598 219.413 191.702C219.671 191.805 219.932 191.901 220.195 191.992C220.458 192.082 220.723 192.165 220.99 192.242C221.257 192.319 221.526 192.389 221.797 192.453C222.067 192.516 222.339 192.573 222.613 192.623C222.886 192.672 223.161 192.715 223.436 192.751C223.712 192.787 223.988 192.817 224.265 192.839C224.543 192.861 224.82 192.877 225.098 192.885C225.376 192.893 225.654 192.895 225.931 192.889C226.209 192.884 226.487 192.871 226.764 192.852C227.041 192.832 227.318 192.806 227.594 192.773C227.87 192.74 228.145 192.7 228.419 192.653C228.693 192.606 228.966 192.552 229.237 192.491C229.508 192.43 229.778 192.363 230.046 192.289C230.313 192.215 230.579 192.134 230.843 192.046C231.107 191.959 231.369 191.865 231.628 191.764C235.809 190.182 239.366 187.182 241.186 183.045C242.447 180.177 242.883 176.369 242.041 173.33C243.498 173.892 245.176 174.392 246.517 175.192C246.501 175.258 246.483 175.324 246.468 175.39C246.172 176.659 246.456 178.204 246.25 179.54C245.383 185.16 242.356 190.171 237.571 193.298C237.271 193.492 236.966 193.68 236.657 193.86C236.347 194.04 236.034 194.212 235.716 194.377C235.398 194.542 235.077 194.698 234.751 194.847C234.426 194.996 234.097 195.137 233.765 195.27C233.432 195.403 233.097 195.528 232.758 195.644C232.42 195.76 232.079 195.869 231.735 195.969C231.391 196.068 231.045 196.16 230.697 196.242C230.349 196.325 229.999 196.4 229.647 196.465C229.295 196.531 228.942 196.588 228.587 196.637C228.232 196.685 227.877 196.725 227.52 196.756C227.164 196.787 226.806 196.809 226.449 196.823C226.091 196.837 225.733 196.842 225.376 196.838C225.018 196.834 224.66 196.821 224.302 196.8C223.945 196.779 223.589 196.749 223.233 196.71C222.877 196.671 222.522 196.624 222.169 196.568C221.815 196.511 221.463 196.447 221.113 196.373C220.773 196.302 220.435 196.221 220.099 196.132C219.763 196.043 219.43 195.945 219.1 195.838C218.769 195.731 218.441 195.615 218.117 195.491C217.792 195.367 217.472 195.234 217.154 195.093C216.837 194.951 216.523 194.802 216.214 194.644C215.904 194.486 215.599 194.32 215.298 194.146C214.997 193.972 214.701 193.79 214.41 193.6C214.119 193.411 213.833 193.214 213.552 193.009C212.386 191.464 211.611 189.483 210.609 187.815C209.16 185.404 207.383 183.241 205.609 181.067C205.179 178.959 204.988 176.925 205.198 174.777Z" fill="#462F6E"/>
<path d="M119.127 158.42C121.731 157.064 124.304 155.61 126.969 154.378L128.05 155.177C127.565 159.101 126.689 162.965 126.212 166.89C126.071 168.049 125.848 169.302 125.899 170.468C125.618 173.367 125.464 176.306 125.373 179.218C125.323 180.797 125.566 182.885 125.192 184.395C125.013 188.518 125.023 192.794 125.158 196.92L125.146 223.126L125.13 240.24C125.128 243.317 125.034 246.429 125.156 249.501L125.174 275.845C125.172 280.463 125.256 285.098 125.164 289.714L125.175 290H93.6218H84.1113H63.3001H31.0073L31.0592 289.643C32.203 286.12 32.9611 282.459 34.2225 278.976C42.9902 283.143 53.5936 284.429 63.2106 284.534C63.5032 278.573 63.3619 272.568 63.602 266.595C63.9685 257.018 64.7208 247.473 65.8589 237.957C66.7173 230.521 67.7413 223.046 69.3176 215.725C70.3884 209.281 72.7617 198.945 75.3065 192.946C75.4974 192.532 75.6342 192.159 75.7364 191.715C72.6121 189.832 69.771 187.29 67.1109 184.813C68.227 183.806 69.231 182.654 70.2802 181.577C73.9381 177.824 77.4708 173.829 81.313 170.276C84.435 171.626 87.904 172.797 90.6496 174.833C92.3891 173.895 94.0532 172.614 95.7017 171.513C97.2961 170.656 98.8359 169.641 100.401 168.727C102.987 167.218 105.662 165.776 108.364 164.487C111.658 162.055 115.635 160.535 119.127 158.42Z" fill="#3798A2"/>
<path d="M86.5911 289.833C88.9441 289.88 91.2972 289.893 93.6505 289.873L93.6219 290H84.1113L84.1255 289.895L84.3022 289.853L86.5911 289.833Z" fill="#9ECAD0"/>
<path d="M63.3207 289.839L76.3237 289.853C78.915 289.853 81.538 289.757 84.1256 289.895L84.1115 290H63.3003L63.3207 289.839Z" fill="#9ECAD0"/>
<path d="M125.164 289.714L125.175 290H93.6221L93.6507 289.872C96.3711 289.768 99.1205 289.861 101.845 289.861L117.007 289.836C119.074 289.836 123.274 290.093 125.03 289.742L125.164 289.714Z" fill="#9ECAD0"/>
<path d="M31.0073 290L31.0592 289.643L31.3205 289.759C34.4553 290.011 37.6983 289.858 40.8486 289.858C48.3275 289.853 55.8462 289.666 63.3205 289.838L63.3001 290H31.0073Z" fill="#9ECAD0"/>
<path d="M118.354 284.744C118.98 284.749 119.564 284.755 120.002 285.282C120.258 285.59 120.384 285.896 120.347 286.304C120.292 286.907 119.95 287.216 119.522 287.581C118.858 287.601 118.306 287.635 117.815 287.106C117.545 286.817 117.47 286.514 117.488 286.126C117.517 285.494 117.918 285.137 118.354 284.744Z" fill="#1B1742"/>
<path d="M118.8 243.139C119.285 243.233 119.792 243.406 120.072 243.844C120.312 244.219 120.385 244.596 120.27 245.03C120.082 245.738 119.657 246.025 119.037 246.352C118.871 246.32 118.679 246.293 118.52 246.232C118.053 246.052 117.666 245.722 117.498 245.239C117.373 244.879 117.407 244.48 117.567 244.138C117.824 243.59 118.26 243.35 118.8 243.139Z" fill="#1B1742"/>
<path d="M118.665 198.652C118.746 198.665 118.827 198.676 118.907 198.691C119.413 198.785 119.967 199.03 120.237 199.496C120.441 199.848 120.502 200.195 120.395 200.588C120.219 201.228 119.75 201.481 119.216 201.799C119.047 201.786 119.056 201.791 118.862 201.752C118.377 201.655 117.829 201.368 117.598 200.907C117.417 200.548 117.368 200.194 117.49 199.809C117.682 199.205 118.135 198.934 118.665 198.652Z" fill="#1B1742"/>
<path d="M118.67 264.911C118.838 264.918 118.992 264.917 119.158 264.956C119.584 265.057 120.007 265.368 120.223 265.749C120.441 266.134 120.455 266.575 120.326 266.991C120.132 267.618 119.694 267.853 119.154 268.149C118.576 268.059 118.037 267.87 117.696 267.37C117.476 267.047 117.399 266.681 117.478 266.298C117.623 265.596 118.092 265.265 118.67 264.911Z" fill="#1B1742"/>
<path d="M118.534 220.468C118.668 220.462 118.803 220.454 118.937 220.457C119.377 220.465 119.792 220.624 120.07 220.979C120.349 221.337 120.45 221.739 120.372 222.183C120.246 222.899 119.851 223.235 119.275 223.625C119.098 223.619 118.98 223.62 118.799 223.595C118.347 223.536 117.824 223.279 117.586 222.868C117.379 222.512 117.331 222.194 117.42 221.795C117.569 221.125 117.988 220.83 118.534 220.468Z" fill="#1B1742"/>
<path d="M124.035 184.731C124.391 184.541 124.801 184.482 125.192 184.395C125.013 188.518 125.023 192.794 125.158 196.92L125.146 223.126L125.131 240.24C125.129 243.317 125.034 246.429 125.156 249.501L125.174 275.845C125.172 280.463 125.256 285.098 125.164 289.714L125.03 289.742C124.708 289.725 124.405 289.669 124.088 289.612C123.884 285.627 124.045 281.559 124.047 277.566L124.034 255.322L124.035 184.731Z" fill="#014E70"/>
<path d="M81.3129 170.276C84.4349 171.626 87.9039 172.797 90.6496 174.833C84.1529 179.605 79.0518 184.156 75.7364 191.715C72.6121 189.832 69.771 187.29 67.1108 184.813C68.2269 183.806 69.2309 182.654 70.2802 181.577C73.938 177.824 77.4707 173.829 81.3129 170.276Z" fill="#FEFCFD"/>
<path d="M34.2225 278.976C42.9901 283.143 53.5936 284.429 63.2106 284.534L63.2494 289.728L42.3498 289.731C38.6914 289.731 34.9721 289.589 31.3205 289.759L31.0591 289.643C32.2029 286.12 32.9611 282.459 34.2225 278.976Z" fill="#1B1742"/>
<path d="M84.3023 289.853C83.818 283.274 83.5858 276.674 83.2406 270.086L81.2205 233.36L80.1234 212.768C79.9901 210.649 79.8461 208.53 79.6915 206.413C79.5853 205.005 79.3689 203.541 79.4675 202.131L79.5414 202.144C81.1007 210.353 82.1517 218.694 83.4397 226.952L89.9471 266.988C91.1711 274.568 92.1595 282.206 93.5231 289.762C91.2385 289.759 88.8639 289.637 86.5912 289.833L84.3023 289.853Z" fill="#1B7877"/>
<path d="M119.127 158.42C121.731 157.064 124.304 155.61 126.969 154.378L128.05 155.177C127.565 159.101 126.689 162.965 126.212 166.89C126.071 168.049 125.848 169.302 125.899 170.468C125.618 173.367 125.464 176.306 125.372 179.218C125.323 180.797 125.566 182.885 125.192 184.395C124.801 184.482 124.391 184.541 124.035 184.73C121.657 186.051 119.336 187.475 116.976 188.827C114.229 190.402 111.45 191.905 108.741 193.549C108.186 190.595 105.143 172.671 105.473 170.715C105.842 168.53 107.256 166.379 108.364 164.487C111.657 162.055 115.635 160.535 119.127 158.42Z" fill="#462F6E"/>
<path d="M182.988 89.5776C185.565 77.7361 190.83 67.029 201.37 60.2803C210.926 54.1622 222.663 52.4879 233.669 54.9654C244.492 57.4018 254.32 64.054 260.246 73.4846C265.364 81.6284 267.659 91.1976 267.7 100.758C267.71 103.148 267.374 105.515 267.343 107.888C267.238 109.02 267.473 109.88 267.712 110.974C268.439 114.294 268.168 116.244 266.945 119.385C265.222 121.859 263.313 124 260.207 124.578C259.07 124.79 257.982 124.758 256.843 124.565C255.89 133.297 252.274 141.497 245.331 147.096C243.094 148.899 240.649 150.26 238.052 151.469C229.959 155.04 223.31 155.186 215.089 151.842C215.034 151.82 214.981 151.796 214.927 151.772C214.763 153.303 214.465 154.863 214.358 156.393C213.784 161.615 213.105 166.855 212.703 172.093C211.868 172.389 211.023 172.664 210.224 173.052C208.572 173.621 206.882 174.336 205.197 174.777C203.725 175.403 202.233 176.004 200.781 176.673C200.126 176.178 199.46 175.698 198.783 175.234C198.107 174.769 197.42 174.319 196.723 173.886C196.026 173.452 195.319 173.034 194.603 172.632C193.887 172.231 193.163 171.846 192.429 171.477C191.696 171.108 190.954 170.756 190.205 170.421C189.455 170.085 188.699 169.767 187.935 169.466C187.171 169.165 186.401 168.882 185.624 168.616C184.847 168.35 184.065 168.102 183.277 167.871C182.095 167.115 188.266 164.609 187.339 163.55C186.13 163.121 196.836 162.482 195.552 161.568C190.795 158.18 199.014 159.512 194.419 155.904C194.33 151.768 191.3 151.119 191.304 146.983C192.337 145.93 184.874 137.93 186.257 136.787C193.695 130.637 182.441 131.483 183.277 122.061C183.94 118.946 182.524 112.573 183.657 109.175C183.928 108.868 184.006 108.492 184.338 108.255C185.062 107.762 185.649 107.078 186.257 106.451C187.99 102.787 188.874 98.6594 187.554 94.711C186.743 92.289 185.272 90.6949 182.988 89.5776Z" fill="#EE8D7C"/>
<path d="M226.077 114.342L226.63 114.441C226.99 114.748 227.049 115.166 227.093 115.617C227.214 116.871 226.926 119.265 226.091 120.249C225.59 120.84 224.888 121.246 224.37 121.849C224.321 122.074 224.279 122.263 224.338 122.494C224.657 123.744 226.663 123.484 227.463 124.143C227.628 124.279 227.617 124.683 227.646 124.893C227.156 124.922 226.693 124.923 226.213 124.808C225.243 124.576 224.045 123.896 223.529 123.014C223.241 122.524 223.157 121.795 223.468 121.291C223.894 120.598 224.852 120.179 225.348 119.474C226.363 118.032 225.667 115.953 226.077 114.342Z" fill="#611927"/>
<path d="M209.455 102.706C210.827 102.546 212.503 102.981 213.643 103.742C213.855 104.122 213.879 104.198 213.876 104.632C212.917 106.346 210.218 103.67 206.984 105.589L206.813 105.693C206.038 106.267 204.94 107.25 203.903 107.194C203.525 107.173 203.45 107.126 203.223 106.861C203.161 106.401 203.278 106.072 203.542 105.702C204.765 103.993 207.45 103.015 209.455 102.706Z" fill="#1B1742"/>
<path d="M188.298 111.015C189.176 111.086 189.706 111.292 190.463 111.754C189.419 116.913 191.18 117.223 193.292 121.291C193.043 121.62 192.525 121.698 192.145 121.818C192.08 121.813 192.015 121.811 191.95 121.805C190.659 121.69 189.395 120.682 188.595 119.726C187.262 118.134 186.601 115.859 186.834 113.791C186.969 112.603 187.357 111.748 188.298 111.015Z" fill="#D86A6D"/>
<path d="M240.034 110.612C240.479 110.582 240.974 110.532 241.414 110.617C242.307 110.788 243.15 111.482 243.623 112.237C244.308 113.333 244.479 114.738 244.129 115.976C243.77 117.247 243.043 117.992 241.906 118.6C241.393 118.741 240.944 118.812 240.419 118.696C239.546 118.503 238.87 117.979 238.41 117.221C237.736 116.111 237.562 114.6 237.891 113.352C238.238 112.034 238.871 111.28 240.034 110.612Z" fill="#1B1742"/>
<path d="M241.984 112.148C242.394 112.164 242.889 112.148 243.195 112.474C243.355 112.645 243.461 112.851 243.47 113.084C243.497 113.728 243.162 114.133 242.77 114.606C242.727 114.612 242.684 114.621 242.641 114.625C242.221 114.667 241.867 114.616 241.551 114.308C241.362 114.124 241.303 113.892 241.291 113.638C241.26 112.982 241.562 112.614 241.984 112.148Z" fill="#FEFCFD"/>
<path d="M208.122 112.268C208.332 111.678 208.812 111.146 209.384 110.884C210.1 110.555 211.006 110.588 211.727 110.886C212.699 111.287 213.592 112.447 213.967 113.406C214.395 114.501 214.308 115.803 213.814 116.862C213.377 117.799 212.594 118.611 211.59 118.921C210.919 119.127 210.168 119.077 209.554 118.725C208.605 118.182 208.234 117.067 207.981 116.062C207.765 115.205 207.708 114.479 207.729 113.564C207.743 112.997 207.981 112.663 208.122 112.268Z" fill="#1B1742"/>
<path d="M211.234 111.954C211.726 111.859 212.183 111.769 212.627 112.087C212.969 112.332 213.173 112.761 213.209 113.174C213.251 113.647 213.099 114.149 212.789 114.512C212.55 114.792 212.148 115.071 211.767 115.064C211.504 115.059 211.229 114.991 210.973 114.935C210.742 114.569 210.458 114.09 210.424 113.65C210.372 112.994 210.872 112.452 211.234 111.954Z" fill="#FEFCFD"/>
<path d="M258.203 109.632L258.316 110.138C260.098 110.176 261.903 109.966 263.244 111.452C264.09 112.388 264.28 113.726 264.177 114.944C264.018 116.817 262.976 118.871 261.519 120.055C260.682 120.735 258.818 121.691 257.683 121.477C257.389 121.421 257.248 121.332 257.018 121.153C256.796 120.776 256.867 120.433 256.904 120.019L257.093 119.624L257.991 111.68C258.042 110.994 258.119 110.314 258.203 109.632Z" fill="#D86A6D"/>
<path d="M257.991 111.68C259.105 111.819 259.704 111.979 260.405 112.936C260.973 113.712 261.09 114.782 260.932 115.708C260.724 116.926 259.919 117.909 258.925 118.602C258.364 118.994 257.705 119.314 257.094 119.624L257.991 111.68Z" fill="#EE8D7C"/>
<path d="M220.892 130.906C222.537 130.839 231.088 130.473 231.983 131.028C232.25 131.393 232.349 131.66 232.35 132.119C232.355 133.978 231.553 135.491 230.277 136.777C230.197 136.845 230.116 136.913 230.031 136.976C228.632 138.012 227.041 138.402 225.322 138.093C223.668 137.796 222.237 136.826 221.283 135.451C220.592 134.454 219.979 133.02 220.26 131.784C220.364 131.33 220.511 131.164 220.892 130.906Z" fill="#FEFCFD"/>
<path d="M206.645 120.665C207.794 120.587 208.799 120.839 209.788 121.437C209.868 121.486 209.947 121.538 210.025 121.591C210.104 121.644 210.18 121.699 210.256 121.756C210.331 121.813 210.405 121.872 210.477 121.933C210.55 121.993 210.621 122.056 210.69 122.12C210.759 122.184 210.827 122.25 210.893 122.318C210.959 122.386 211.023 122.455 211.085 122.526C211.148 122.596 211.208 122.669 211.268 122.743C211.326 122.816 211.384 122.892 211.439 122.968C211.494 123.045 211.547 123.123 211.598 123.203C211.649 123.282 211.699 123.362 211.746 123.444C211.793 123.526 211.838 123.609 211.882 123.693C211.925 123.777 211.966 123.862 212.004 123.948C212.043 124.035 212.08 124.122 212.115 124.209C212.149 124.297 212.181 124.386 212.212 124.476C212.242 124.565 212.269 124.655 212.295 124.746C212.321 124.837 212.344 124.929 212.365 125.021C212.403 125.205 212.433 125.39 212.453 125.576C212.473 125.763 212.485 125.95 212.487 126.137C212.489 126.325 212.482 126.512 212.466 126.699C212.45 126.886 212.425 127.071 212.39 127.256C212.357 127.44 212.314 127.623 212.262 127.803C212.21 127.983 212.149 128.16 212.08 128.335C212.011 128.509 211.934 128.68 211.848 128.847C211.762 129.013 211.669 129.176 211.567 129.334C210.622 130.807 209.275 131.477 207.62 131.824C206.589 131.88 205.553 131.704 204.627 131.24C203.291 130.571 202.326 129.332 201.916 127.903C201.888 127.81 201.863 127.716 201.84 127.622C201.818 127.527 201.798 127.433 201.78 127.337C201.762 127.242 201.747 127.146 201.734 127.05C201.721 126.954 201.711 126.857 201.704 126.76C201.696 126.664 201.691 126.567 201.688 126.47C201.685 126.373 201.685 126.276 201.687 126.179C201.69 126.082 201.694 125.985 201.702 125.888C201.709 125.791 201.719 125.695 201.731 125.598C201.744 125.502 201.758 125.406 201.776 125.311C201.793 125.215 201.813 125.12 201.835 125.026C201.857 124.931 201.882 124.837 201.909 124.744C201.936 124.651 201.966 124.559 201.998 124.467C202.03 124.375 202.064 124.284 202.101 124.195C202.137 124.105 202.176 124.016 202.217 123.928C202.258 123.84 202.302 123.753 202.348 123.668C202.393 123.582 202.441 123.498 202.491 123.415C203.44 121.863 204.923 121.067 206.645 120.665Z" fill="#D86A6D"/>
<path d="M244.27 120.685C245.506 120.575 246.903 121.057 247.888 121.793C249.097 122.696 249.934 124.088 250.107 125.591C250.28 127.095 249.765 128.685 248.813 129.852C247.775 131.127 246.517 131.591 244.942 131.78C243.657 131.787 242.44 131.549 241.376 130.786C240.15 129.906 239.365 128.495 239.158 127.01C238.958 125.574 239.367 124.164 240.236 123.011C241.261 121.652 242.612 120.945 244.27 120.685Z" fill="#D86A6D"/>
<path d="M184.338 108.255L184.289 108.464C184.043 109.474 183.527 110.343 183.403 111.404C183.108 113.912 184.202 118.64 185.534 120.883C186.618 122.706 188.256 124.32 190.371 124.839C191.969 125.231 193.374 124.847 194.812 124.152C195.819 133.359 199.317 141.112 206.696 147.002C209.228 149.023 211.97 150.489 214.927 151.772C214.763 153.303 214.465 154.863 214.358 156.393C213.784 161.615 213.105 166.855 212.703 172.092C211.868 172.388 211.023 172.663 210.225 173.051C208.572 173.621 206.882 174.336 205.197 174.777C203.725 175.403 202.233 176.003 200.781 176.673C200.126 176.178 199.46 175.698 198.783 175.233C198.107 174.768 197.42 174.319 196.723 173.885C196.026 173.452 195.319 173.034 194.603 172.632C193.887 172.23 193.163 171.845 192.429 171.476C191.696 171.108 190.954 170.756 190.205 170.42C189.455 170.085 188.699 169.767 187.935 169.466C187.171 169.165 186.401 168.882 185.624 168.616C184.847 168.35 184.065 168.102 183.277 167.871C182.095 167.115 179.881 165.132 179.881 165.132C179.881 165.132 179.771 163.901 179.881 163.125C179.986 162.385 180.119 161.976 180.4 161.284C180.736 160.458 181.533 159.302 181.533 159.302C181.533 159.302 178.725 157.981 177.568 156.47C176.197 154.678 175.869 153.204 175.869 150.947C175.869 148.691 176.195 147.215 177.568 145.425C178.552 144.143 180.825 142.876 180.825 142.876C180.825 142.876 178.944 141.72 178.135 140.61C176.767 138.735 176.86 134.805 176.86 134.805C176.86 134.805 177.527 131.118 179.126 129.565C180.333 128.394 182.949 127.583 182.949 127.583V118.237V112.715L183.391 109.01C183.391 109.01 184.006 108.492 184.338 108.255Z" fill="#1B1742"/>
<path d="M182.988 89.5776C185.565 77.7361 190.83 67.029 201.37 60.2803C210.926 54.1622 222.663 52.4879 233.669 54.9654C244.492 57.4018 254.32 64.054 260.246 73.4846C265.364 81.6284 267.659 91.1976 267.7 100.758C267.71 103.148 267.374 105.515 267.343 107.888L267.119 108.86C265.668 107.198 263.937 105.668 261.62 105.484C260.782 105.417 260.027 105.613 259.406 106.195C258.359 107.176 258.337 108.31 258.203 109.632C258.12 110.315 258.042 110.994 257.991 111.68L257.093 119.624L256.904 120.019C256.136 114.882 254.928 109.751 253.947 104.645C250.977 104.551 248.046 104.393 245.12 103.824C245.736 104.333 246.392 104.787 247.011 105.289C247.385 105.592 247.747 106.106 247.721 106.61C247.701 106.989 247.547 107.097 247.293 107.334C245.317 107.99 243.609 105.298 241.735 104.889C240.569 104.635 239.414 105.189 238.263 105.274C237.982 105.295 237.786 105.256 237.524 105.142C237.345 104.926 237.224 104.847 237.179 104.558C237.124 104.207 237.173 103.864 237.432 103.596C238.086 102.922 240.301 102.942 241.187 102.905C231.444 99.8825 220.846 94.9387 213.644 87.5289C211.625 85.4516 209.958 83.1399 208.372 80.7281C207.246 85.8634 206.52 89.4898 204.367 94.3901C202.69 98.206 200.624 101.425 198.687 105.051C195.974 110.128 194.863 115.136 194.422 120.82C193.981 117.868 193.795 114.858 193.504 111.887C193.342 110.239 193.316 108.438 192.754 106.872C192.374 106.507 191.919 106.177 191.444 105.946C189.662 105.081 187.966 105.81 186.257 106.451C187.99 102.787 188.874 98.6594 187.554 94.711C186.743 92.289 185.272 90.6949 182.988 89.5776Z" fill="#1B1742"/>
<path d="M159.167 137.992C159.164 142.128 159.099 146.275 159.188 150.411C163.783 154.019 168.656 157.242 173.413 160.629C174.698 161.543 178.673 164.703 179.881 165.132C180.809 166.191 182.095 167.115 183.277 167.871C184.065 168.102 184.847 168.35 185.624 168.616C186.401 168.882 187.171 169.165 187.935 169.466C188.699 169.767 189.455 170.085 190.205 170.42C190.954 170.755 191.696 171.107 192.429 171.476C193.163 171.845 193.887 172.23 194.603 172.632C195.319 173.034 196.026 173.451 196.723 173.885C197.42 174.319 198.107 174.768 198.783 175.233C199.46 175.698 200.126 176.178 200.781 176.673C202.233 176.003 203.725 175.403 205.197 174.777C204.988 176.924 205.179 178.958 205.609 181.067C207.383 183.24 209.16 185.404 210.609 187.815C211.61 189.482 212.386 191.463 213.552 193.008C213.566 193.088 213.578 193.168 213.593 193.247C213.943 195.121 215.329 197.586 216.009 199.45C217.784 204.314 219.425 209.27 220.619 214.311C225.313 234.124 225.632 254.328 225.57 274.578L227.736 274.596C227.008 274.643 226.288 274.686 225.559 274.676C225.407 279.699 225.067 284.727 224.939 289.745C222.945 290.045 220.724 289.858 218.701 289.858L206.438 289.864L206.452 290H196.661H166.107H125.175L125.164 289.714C125.256 285.098 125.172 280.463 125.174 275.845L125.156 249.501C125.034 246.428 125.128 243.317 125.13 240.24L125.146 223.126L125.158 196.92C125.023 192.793 125.013 188.518 125.192 184.395C125.566 182.885 125.323 180.797 125.373 179.218C125.464 176.306 125.618 173.367 125.899 170.467C125.848 169.302 126.071 168.049 126.212 166.89C126.689 162.965 127.565 159.101 128.05 155.177L129.124 155.387L129.391 153.348C129.946 151.995 130.339 146.802 130.579 145.012C130.734 142.97 131.123 140.94 131.457 138.92C133.796 140.456 136.282 141.479 139.029 142.043C145.635 143.402 153.533 141.68 159.167 137.992Z" fill="#3798A2"/>
<path d="M196.628 289.873L206.438 289.864L206.452 290H196.661L196.628 289.873Z" fill="#9ECAD0"/>
<path d="M166.126 289.824C176.283 289.975 186.479 289.581 196.628 289.873L196.661 290H166.107L166.126 289.824Z" fill="#9ECAD0"/>
<path d="M205.197 174.777C204.988 176.925 205.179 178.959 205.609 181.067C203.902 179.717 202.532 178.004 200.781 176.673C202.233 176.003 203.725 175.403 205.197 174.777Z" fill="#76C6F0"/>
<path d="M208.77 207.261C209.119 208.482 208.727 212.941 208.676 214.592L208.086 232.784L206.457 289.745L196.857 289.717C196.676 287.8 197.922 281.652 198.245 279.447C199.587 270.017 200.988 260.596 202.449 251.183L206.888 220.37C207.511 216.11 207.843 211.415 208.77 207.261Z" fill="#1B7877"/>
<path d="M159.188 150.411C163.783 154.019 168.656 157.242 173.413 160.629C174.698 161.544 178.673 164.703 179.881 165.133C180.809 166.191 182.095 167.115 183.277 167.871C183.351 168.327 183.794 168.668 184.108 168.983L181.386 186.242C180.982 188.838 180.785 191.596 180.199 194.147C175.53 191.113 170.878 188.053 166.243 184.967C165.809 184.635 165.282 184.361 164.816 184.07C164.464 179.87 164.149 175.725 163.62 171.539C163.558 170.764 163.47 169.992 163.358 169.222C163.018 166.838 160.718 153.961 159.3 152.9C159.209 152.292 159.177 151.676 159.129 151.064L159.188 150.411Z" fill="#462F6E"/>
<path d="M159.167 137.992C159.164 142.128 159.099 146.275 159.188 150.411L159.129 151.063C159.177 151.675 159.209 152.292 159.299 152.899C160.718 153.96 163.018 166.838 163.358 169.222C163.47 169.991 163.558 170.763 163.62 171.539C164.149 175.725 164.464 179.87 164.815 184.07C165.282 184.361 165.809 184.634 166.243 184.966C166.196 188.666 166.259 192.375 166.153 196.072L166.097 211.949C166.093 215.39 166.02 218.852 166.117 222.292C166.347 231.075 166.111 239.908 166.118 248.698L166.108 275.158C166.106 280.033 165.955 284.956 166.127 289.824L166.107 290H125.175L125.164 289.714C125.256 285.098 125.172 280.463 125.174 275.845L125.156 249.501C125.034 246.428 125.128 243.317 125.13 240.24L125.146 223.126L125.158 196.92C125.023 192.793 125.013 188.518 125.192 184.395C125.566 182.885 125.323 180.797 125.373 179.218C125.464 176.306 125.618 173.367 125.899 170.467C125.848 169.302 126.071 168.049 126.212 166.89C126.689 162.965 127.565 159.101 128.05 155.177L129.124 155.387L129.391 153.348C129.946 151.995 130.339 146.802 130.579 145.012C130.734 142.97 131.123 140.94 131.457 138.92C133.796 140.456 136.282 141.479 139.029 142.043C145.635 143.402 153.533 141.68 159.167 137.992Z" fill="#E4752F"/>
<path d="M125.899 170.468C131.632 175.885 138.219 177.798 146.04 177.597C152.848 177.422 158.167 175.559 163.62 171.539C164.149 175.725 164.464 179.87 164.815 184.07C165.282 184.361 165.809 184.635 166.243 184.967C166.196 188.666 166.259 192.375 166.153 196.073C155.808 201.995 145.024 203.399 133.527 200.27C130.586 199.47 127.883 198.256 125.158 196.92C125.023 192.794 125.013 188.519 125.192 184.395C125.566 182.886 125.323 180.797 125.373 179.218C125.464 176.307 125.618 173.367 125.899 170.468Z" fill="#FCD88D"/>
<path d="M166.117 222.292C166.347 231.076 166.112 239.908 166.118 248.699C155.532 254.217 143.704 255.848 132.19 252.237C129.761 251.476 127.518 250.417 125.156 249.501C125.034 246.429 125.129 243.317 125.131 240.24L125.146 223.126C127.85 224.735 131.101 225.878 134.144 226.636C144.895 229.316 156.573 228.07 166.117 222.292Z" fill="#FCD88D"/>
<path d="M159.168 137.992C159.164 142.128 159.099 146.275 159.188 150.411L159.129 151.063C159.177 151.675 159.209 152.292 159.3 152.899C160.718 153.96 163.018 166.838 163.358 169.222C163.47 169.991 163.558 170.763 163.62 171.539C158.167 175.559 152.848 177.421 146.04 177.596C138.219 177.797 131.632 175.884 125.899 170.467C125.848 169.302 126.071 168.049 126.212 166.89C126.689 162.965 127.565 159.101 128.05 155.177L129.124 155.387L129.391 153.348C129.946 151.995 130.339 146.802 130.579 145.012C130.734 142.97 131.123 140.94 131.457 138.92C133.797 140.456 136.282 141.479 139.029 142.043C145.635 143.402 153.534 141.68 159.168 137.992Z" fill="#FFBFAC"/>
<path d="M159.168 137.992C159.164 142.128 159.099 146.275 159.188 150.411L159.129 151.063C156.76 152.314 154.18 152.779 151.519 152.845C143.792 153.037 136.227 150.351 130.579 145.012C130.734 142.97 131.123 140.94 131.457 138.92C133.797 140.456 136.283 141.479 139.029 142.043C145.635 143.402 153.534 141.68 159.168 137.992Z" fill="#D86A6D"/>
<path d="M159.3 152.899C160.718 153.96 163.018 166.838 163.358 169.222C163.47 169.991 163.558 170.764 163.62 171.539C158.167 175.559 152.848 177.421 146.04 177.596C138.219 177.797 131.632 175.884 125.899 170.468C125.848 169.302 126.071 168.049 126.212 166.89C126.689 162.965 127.565 159.101 128.05 155.178L129.124 155.387C128.92 156.74 128.744 158.097 128.597 159.458C129.064 160.166 129.579 160.837 130.142 161.471C130.705 162.105 131.311 162.695 131.96 163.242C136.159 166.732 142.259 168.183 147.626 167.68C152.058 167.265 156.429 165.224 159.285 161.746C159.369 158.801 159.31 155.846 159.3 152.899Z" fill="#3798A2"/>
<path d="M125.156 249.501C127.518 250.417 129.761 251.476 132.19 252.237C143.704 255.848 155.532 254.217 166.118 248.699L166.108 275.158C166.106 280.033 165.955 284.956 166.127 289.825L166.107 290H125.175L125.164 289.714C125.256 285.098 125.172 280.463 125.174 275.845L125.156 249.501Z" fill="#E4752F"/>
<path d="M166.108 275.158C166.106 280.033 165.955 284.956 166.127 289.824L166.107 290H125.175L125.164 289.714C125.256 285.098 125.172 280.463 125.174 275.845C127.919 276.872 130.599 277.923 133.451 278.628C142.316 280.818 152.333 280.314 160.963 277.316C162.728 276.703 164.391 275.882 166.108 275.158Z" fill="#FCD88D"/>
</g>
<defs>
<clipPath id="clip0_228_2267">
<rect width="290" height="290" fill="white"/>
</clipPath>
</defs>
</svg>
