<svg width="28" height="25" viewBox="0 0 28 25" fill="none" xmlns="http://www.w3.org/2000/svg">
<path d="M3.17122 11.0454H25.865C26.166 11.0454 26.4546 11.1699 26.6674 11.3916C26.8802 11.6132 26.9997 11.9138 26.9997 12.2272C26.9997 12.5407 26.8802 12.8413 26.6674 13.0629C26.4546 13.2845 26.166 13.409 25.865 13.409H3.17122C2.87029 13.409 2.58167 13.2845 2.36888 13.0629C2.15608 12.8413 2.03653 12.5407 2.03653 12.2272C2.03653 11.9138 2.15608 11.6132 2.36888 11.3916C2.58167 11.1699 2.87029 11.0454 3.17122 11.0454Z" fill="#8E3B00" stroke="#8E3B00" stroke-width="2"/>
<path d="M3.87091 12.2273L13.7275 21.5358C13.9506 21.7465 14.076 22.0324 14.076 22.3305C14.076 22.6286 13.9506 22.9145 13.7275 23.1253C13.5043 23.3361 13.2016 23.4545 12.8861 23.4545C12.5705 23.4545 12.2678 23.3361 12.0447 23.1253L1.34914 13.0221C1.23846 12.9178 1.15066 12.7939 1.09075 12.6575C1.03084 12.5211 1 12.3749 1 12.2273C1 12.0796 1.03084 11.9334 1.09075 11.797C1.15066 11.6606 1.23846 11.5368 1.34914 11.4325L12.0447 1.32921C12.2678 1.11842 12.5705 1 12.8861 1C13.2016 1 13.5043 1.11842 13.7275 1.32921C13.9506 1.54 14.076 1.8259 14.076 2.124C14.076 2.42211 13.9506 2.708 13.7275 2.91879L3.87091 12.2273Z" fill="#8E3B00" stroke="#8E3B00" stroke-width="2"/>
</svg>
