<svg width="25" height="22" viewBox="0 0 25 22" fill="none" xmlns="http://www.w3.org/2000/svg">
<path d="M12.5593 4.16931L11.9786 4.72499C12.0539 4.80255 12.144 4.86425 12.2438 4.90639C12.3436 4.94854 12.4509 4.97025 12.5593 4.97025C12.6677 4.97025 12.775 4.94854 12.8747 4.90639C12.9745 4.86425 13.0647 4.80255 13.1399 4.72499L12.5593 4.16931ZM9.7915 17.8711C8.16138 16.5941 6.37963 15.347 4.96564 13.7655C3.58068 12.2138 2.61292 10.4047 2.61292 8.05586H1C1 10.9048 2.19356 13.0784 3.76025 14.8298C5.2979 16.5503 7.25921 17.9288 8.79257 19.1299L9.7915 17.8711ZM2.61292 8.05586C2.61292 5.75834 3.91939 3.83056 5.70328 3.01948C7.43664 2.23191 9.7657 2.44029 11.9786 4.72499L13.1399 3.6147C10.5162 0.903618 7.46674 0.455868 5.03231 1.56188C2.65163 2.64439 1 5.15778 1 8.05586H2.61292ZM8.79257 19.1299C9.34419 19.5616 9.93559 20.0211 10.5345 20.3695C11.1335 20.7168 11.8173 21 12.5593 21V19.3971C12.2259 19.3971 11.8345 19.2688 11.3485 18.9857C10.8614 18.7035 10.3571 18.3146 9.7915 17.8711L8.79257 19.1299ZM16.326 19.1299C17.8593 17.9277 19.8207 16.5514 21.3583 14.8298C22.925 13.0773 24.1186 10.9048 24.1186 8.05586H22.5056C22.5056 10.4047 21.5379 12.2138 20.1529 13.7655C18.7389 15.347 16.9572 16.5941 15.3271 17.8711L16.326 19.1299ZM24.1186 8.05586C24.1186 5.15778 22.468 2.64439 20.0862 1.56188C17.6518 0.455868 14.6045 0.903618 11.9786 3.61363L13.1399 4.72499C15.3529 2.44136 17.6819 2.23191 19.4153 3.01948C21.1992 3.83056 22.5056 5.75727 22.5056 8.05586H24.1186ZM15.3271 17.8711C14.7615 18.3146 14.2571 18.7035 13.77 18.9857C13.284 19.2678 12.8926 19.3971 12.5593 19.3971V21C13.3012 21 13.9851 20.7168 14.584 20.3695C15.184 20.0211 15.7744 19.5616 16.326 19.1299L15.3271 17.8711Z" fill="#4B2D10"/>
<path d="M12.2438 4.90639C12.144 4.86425 12.0539 4.80255 11.9786 4.72499C9.7657 2.44029 7.43664 2.23191 5.70328 3.01948C3.91939 3.83056 2.61292 5.75834 2.61292 8.05586C2.61292 10.4047 3.58068 12.2138 4.96564 13.7655C6.37963 15.347 8.16138 16.5941 9.7915 17.8711C10.3571 18.3146 10.8614 18.7035 11.3485 18.9857C11.8345 19.2688 12.2259 19.3971 12.5593 19.3971C12.8926 19.3971 13.284 19.2678 13.77 18.9857C14.2571 18.7035 14.7615 18.3146 15.3271 17.8711C16.9572 16.5941 18.7389 15.347 20.1529 13.7655C21.5379 12.2138 22.5056 10.4047 22.5056 8.05586C22.5056 5.75727 21.1992 3.83056 19.4153 3.01948C17.6819 2.23191 15.3529 2.44136 13.1399 4.72499C13.0647 4.80255 12.9745 4.86425 12.8747 4.90639C12.775 4.94854 12.6677 4.97025 12.5593 4.97025C12.4509 4.97025 12.3436 4.94854 12.2438 4.90639Z" fill="#FF3B30"/>
<path d="M9.29257 18.4994L9.7915 17.8711M9.7915 17.8711C8.16138 16.5941 6.37963 15.347 4.96564 13.7655C3.58068 12.2138 2.61292 10.4047 2.61292 8.05586M9.7915 17.8711L8.79257 19.1299M9.7915 17.8711C10.3571 18.3146 10.8614 18.7035 11.3485 18.9857C11.8345 19.2688 12.2259 19.3971 12.5593 19.3971M11.9786 4.72499L12.5593 4.16931L13.1399 4.72499M11.9786 4.72499C12.0539 4.80255 12.144 4.86425 12.2438 4.90639C12.3436 4.94854 12.4509 4.97025 12.5593 4.97025C12.6677 4.97025 12.775 4.94854 12.8747 4.90639C12.9745 4.86425 13.0647 4.80255 13.1399 4.72499M11.9786 4.72499C9.7657 2.44029 7.43664 2.23191 5.70328 3.01948C3.91939 3.83056 2.61292 5.75834 2.61292 8.05586M11.9786 4.72499L13.1399 3.6147C10.5162 0.903618 7.46674 0.455868 5.03231 1.56188C2.65163 2.64439 1 5.15778 1 8.05586M13.1399 4.72499L11.9786 3.61363C14.6045 0.903618 17.6518 0.455868 20.0862 1.56188C22.468 2.64439 24.1186 5.15778 24.1186 8.05586M13.1399 4.72499C15.3529 2.44136 17.6819 2.23191 19.4153 3.01948C21.1992 3.83056 22.5056 5.75727 22.5056 8.05586M15.826 18.4994L16.326 19.1299M16.326 19.1299C17.8593 17.9277 19.8207 16.5514 21.3583 14.8298C22.925 13.0773 24.1186 10.9048 24.1186 8.05586M16.326 19.1299L15.3271 17.8711M16.326 19.1299C15.7744 19.5616 15.184 20.0211 14.584 20.3695C13.9851 20.7168 13.3012 21 12.5593 21M2.61292 8.05586H1M1 8.05586C1 10.9048 2.19356 13.0784 3.76025 14.8298C5.2979 16.5503 7.25921 17.9288 8.79257 19.1299M8.79257 19.1299C9.34419 19.5616 9.93559 20.0211 10.5345 20.3695C11.1335 20.7168 11.8173 21 12.5593 21M12.5593 21V19.3971M12.5593 19.3971C12.8926 19.3971 13.284 19.2678 13.77 18.9857C14.2571 18.7035 14.7615 18.3146 15.3271 17.8711M24.1186 8.05586H22.5056M22.5056 8.05586C22.5056 10.4047 21.5379 12.2138 20.1529 13.7655C18.7389 15.347 16.9572 16.5941 15.3271 17.8711" stroke="#4B2D10"/>
</svg>
